<?xml version="1.0" encoding="utf-8"?>
<!-- Generator: Adobe Illustrator 27.5.0, SVG Export Plug-In . SVG Version: 6.00 Build 0)  -->
<svg version="1.1" xmlns="http://www.w3.org/2000/svg" xmlns:xlink="http://www.w3.org/1999/xlink" x="0px" y="0px"
	 viewBox="0 0 750 500" style="enable-background:new 0 0 750 500;" xml:space="preserve">
<g id="BACKGROUND">
	<rect style="fill:#FFCDC4;" width="750" height="500"/>
</g>
<g id="OBJECTS">
	<g style="opacity:0.5;">
		<path style="fill:#EEE8D9;" d="M482.943,167.055c0,12.366-27.192,36.477-111.633,43.621
			c-32.564,2.755-63.191-23.288-63.191-35.654c0-12.365,34.594-20.175,67.273-19.987
			C436.512,155.386,482.943,154.689,482.943,167.055z"/>
		<ellipse style="fill:#EEE8D9;" cx="434.542" cy="64.696" rx="54.202" ry="12.9"/>
		<ellipse style="fill:#EEE8D9;" cx="297.54" cy="112.441" rx="54.202" ry="12.9"/>
	</g>
	<g>
		<path style="fill:#FFFFFF;" d="M750,244.993v93.177l-92.93,2.69c0,0-7.81-3.81-18.08-10.36c-10.75,7.11-21.34,10.36-21.34,10.36
			l-111.82-3.23c-92.61,23.16-231.86,27.52-246.38-12.49l-178.72,5.17c0,0-7.81-3.81-18.09-10.37
			c-10.75,7.11-21.34,10.37-21.34,10.37L0,329.11V204.17c10.53-1.18,23.57,2.68,39.58,15.19c46.44-35.39,68.8,40.55,68.8,40.55
			c16.4-27.81,31.37,1.42,31.37,1.42c55.32-16.06,92,35.19,92,35.19c10.19-20.39,20.68-19.87,20.68-19.87l16.63,15.4
			c29.832-66.612,73.807-10.002,73.807-10.002s23.756-24.262,22.713,7.722c0,0,35.919-39.565,62.31-14.58
			c1.06,0.06-0.463-0.069,0.647,0.021c-0.833-2.707,18.616,7.641,21.306,1.966c9.919-20.927,44.637-5.444,44.567,16.206
			c0,0,11.45-64.473,47.99-47.743c9.43-21.16,30.99-48.95,73.53-15.73c46.43-35.38,68.8,40.55,68.8,40.55
			c16.39-27.8,31.36-10.047,31.36-10.047C724.457,248.973,740.373,239.522,750,244.993z"/>
		<path style="fill:#FFFFFF;" d="M276.556,78.099c0,0-42.979,3.262-66.437-1.702l15.466-3.346c0,0,8.311-22.694,20.132-6.178
			c0,0,5.246-11.869,12.443,5.109L276.556,78.099z"/>
		<path style="fill:#FFFFFF;" d="M406.364,210.878h-83.838l12.081-4.054c0,0,3.852-29.852,26.771-13.289
			c0,0,4.385-14.821,18.622,6.798c0,0,7.909-5.273,11.073,5.273L406.364,210.878z"/>
	</g>
	<rect y="298.17" style="fill:#5A9AFE;" width="750" height="201.649"/>
	<g>
		<defs>
			<rect id="SVGID_1_" y="109.45" width="750" height="388.264"/>
		</defs>
		<clipPath id="SVGID_00000036939670038543128530000002527331961391534746_">
			<use xlink:href="#SVGID_1_"  style="overflow:visible;"/>
		</clipPath>
		<polygon style="clip-path:url(#SVGID_00000036939670038543128530000002527331961391534746_);fill:#5A9AFE;" points="
			790.845,330.132 -2.833,325.983 -2.101,331.187 751.56,335.582 		"/>
		<path style="clip-path:url(#SVGID_00000036939670038543128530000002527331961391534746_);fill:#5A9AFE;" d="M-37.847,367.556
			H788.56v8.41H-69.531C-69.531,375.967-41.808,367.556-37.847,367.556z"/>
		<path style="clip-path:url(#SVGID_00000036939670038543128530000002527331961391534746_);fill:#5A9AFE;" d="M355.146,348.625
			l342.623,5.991l-94.672-9.28C603.098,345.336,357.886,345.519,355.146,348.625z"/>
	</g>
	<g>
		<defs>
			<rect id="SVGID_00000116936088174802190430000014832853377822257340_" width="750" height="500"/>
		</defs>
		<clipPath id="SVGID_00000121972538435141736770000011758278003805745063_">
			<use xlink:href="#SVGID_00000116936088174802190430000014832853377822257340_"  style="overflow:visible;"/>
		</clipPath>
		<path style="clip-path:url(#SVGID_00000121972538435141736770000011758278003805745063_);fill:#FFCDC4;" d="M-106.787,496.752
			c13.876-41.526,82.989-33.369,93.117-50.588c2.37-4.029,1.871-9.539-0.229-15.558c-7.275-20.854,28.497-39.551,74.033-38.84
			c28.623,0.447,57.758,0.505,79.243-0.389c16.723-0.696,28.024-9.548,40.872-19.02c29.01-21.387,67.15-28.823,102.525-24.339
			c26.993,3.422,52.962,13.716,75.593,28.822c10.721,7.157,20.788,15.418,32.348,21.122c17.751,8.759,38.342,6.094,57.592,6.301
			c23.596,0.254,47.197,0.056,70.791-0.312c60.526-0.945,108.072,23.906,98.402,51.625c-2.791,8.001-3.454,15.324-0.304,20.679
			c13.462,22.887,105.324,12.044,123.767,67.239c5.781,17.302-4.382,33.265-22.136,46.441H249.052
			c-6.484,0-11.74-2.449-11.734-5.469l-295.242,5.469C-71.281,580.021-111.137,509.769-106.787,496.752z"/>
		<g style="clip-path:url(#SVGID_00000121972538435141736770000011758278003805745063_);">
			<g>
				<defs>
					<path id="SVGID_00000011725285654968257190000012107197620164456578_" d="M55.821,151.749
						c-12.217,28.141-22.311,57.135-30.809,86.462c-8.333,29.395-15.12,59.135-20.018,89.141
						C0.032,357.34-3.33,387.508-5.134,417.705c-0.109,1.63-0.334,3.486-0.662,5.131c-4.075,20.416-23.929,33.663-44.346,29.588
						c-20.416-4.075-33.664-23.929-29.589-44.346l0.027-0.136c6.421-32.172,14.486-63.95,24.184-95.138
						c9.631-31.205,21.186-61.746,34.254-91.501c13.236-29.697,28.029-58.616,44.87-86.283
						c6.759-11.147,13.868-22.074,21.309-32.779l26.016,17.179C65.569,130.039,60.537,140.83,55.821,151.749z"/>
				</defs>
				<clipPath id="SVGID_00000078747403831232307790000005021401277320792487_">
					<use xlink:href="#SVGID_00000011725285654968257190000012107197620164456578_"  style="overflow:visible;"/>
				</clipPath>
				<g style="clip-path:url(#SVGID_00000078747403831232307790000005021401277320792487_);">
					<path style="fill:#FF9E2F;" d="M55.821,151.749c-12.217,28.141-22.311,57.135-30.809,86.462
						c-8.333,29.395-15.12,59.135-20.018,89.141C0.032,357.34-3.33,387.508-5.134,417.705c-0.109,1.63-0.334,3.486-0.662,5.131
						c-4.075,20.416-23.929,33.663-44.346,29.588c-20.416-4.075-33.664-23.929-29.589-44.346l0.027-0.136
						c6.421-32.172,14.486-63.95,24.184-95.138c9.631-31.205,21.186-61.746,34.254-91.501c13.236-29.697,28.029-58.616,44.87-86.283
						c6.759-11.147,13.868-22.074,21.309-32.779l26.016,17.179C65.569,130.039,60.537,140.83,55.821,151.749z"/>
					<path style="fill:#FFB03A;" d="M55.239,150.435c-5.38-0.334-19.066-2.311-33.245-13.345c-1.144-0.89-1.348-2.537-0.459-3.68
						c0.89-1.144,2.537-1.348,3.68-0.459c16.259,12.653,32.055,12.306,32.211,12.301c1.446-0.059,2.657,1.086,2.706,2.531
						c0.049,1.445-1.077,2.657-2.523,2.709C57.462,150.497,56.627,150.521,55.239,150.435z"/>
					<path style="fill:#FFB03A;" d="M40.397,185.821c-6.163-0.382-21.365-2.803-36.952-16.632c-1.084-0.961-1.183-2.618-0.221-3.702
						c0.959-1.082,2.616-1.183,3.701-0.221c18.104,16.061,35.858,15.374,36.036,15.367c1.434-0.074,2.677,1.038,2.753,2.481
						c0.076,1.444-1.027,2.676-2.47,2.756C43.073,185.878,42.065,185.924,40.397,185.821z"/>
					<path style="fill:#FFB03A;" d="M22.561,224.364c-9.145-0.567-23.453-4.064-38.09-17.949c-1.051-0.997-1.093-2.657-0.097-3.707
						c0.998-1.051,2.656-1.094,3.708-0.098c21.813,20.693,42.361,16.286,43.228,16.09c1.405-0.325,2.815,0.555,3.143,1.962
						c0.326,1.407-0.542,2.813-1.949,3.144C32.125,223.895,28.392,224.725,22.561,224.364z"/>
					<path style="fill:#FFB03A;" d="M8.856,263.272c-10.373-0.643-26.408-4.226-41.179-18.237c-1.051-0.997-1.093-2.657-0.097-3.708
						c0.998-1.05,2.656-1.094,3.708-0.098c21.997,20.868,47.48,16.519,47.737,16.473c1.425-0.259,2.791,0.685,3.049,2.11
						c0.26,1.424-0.685,2.79-2.11,3.049C19.525,262.943,15.273,263.671,8.856,263.272z"/>
					<path style="fill:#FFB03A;" d="M-3.419,306.339c-11.447-0.71-29.152-4.665-45.465-20.14c-1.051-0.997-1.093-2.657-0.097-3.708
						c0.999-1.051,2.656-1.092,3.708-0.097c24.403,23.151,52.883,18.385,53.169,18.334c1.426-0.26,2.787,0.692,3.043,2.115
						c0.257,1.424-0.686,2.786-2.109,3.045C8.346,305.976,3.659,306.778-3.419,306.339z"/>
					<path style="fill:#FFB03A;" d="M-11.876,348.741c-12.726-0.789-32.414-5.188-50.562-22.404
						c-1.051-0.997-1.093-2.657-0.097-3.708c0.998-1.051,2.656-1.092,3.708-0.097c27.363,25.96,59.305,20.603,59.622,20.548
						c1.426-0.259,2.788,0.691,3.045,2.115c0.256,1.424-0.687,2.786-2.11,3.044C1.193,348.337-4.014,349.228-11.876,348.741z"/>
					<path style="fill:#FFB03A;" d="M-22.08,399.022c-14.208-0.881-36.198-5.795-56.474-25.029
						c-1.051-0.997-1.093-2.657-0.097-3.708c0.998-1.05,2.656-1.092,3.708-0.097c30.886,29.301,66.747,23.18,67.106,23.116
						c1.425-0.263,2.79,0.684,3.049,2.11c0.26,1.424-0.685,2.79-2.11,3.049C-7.499,398.572-13.306,399.566-22.08,399.022z"/>
				</g>
				<path style="clip-path:url(#SVGID_00000078747403831232307790000005021401277320792487_);fill:#FFB03A;" d="M-65.834,432.267
					c-0.007,0-0.015-0.001-0.024-0.001c-0.577-0.049-1.005-0.557-0.957-1.134c5.3-62.589,37.063-155.509,37.383-156.439
					c0.188-0.549,0.79-0.837,1.333-0.651c0.549,0.188,0.84,0.785,0.651,1.333c-0.319,0.929-31.998,93.607-37.276,155.935
					C-64.772,431.878-65.266,432.302-65.834,432.267z"/>
				<path style="clip-path:url(#SVGID_00000078747403831232307790000005021401277320792487_);fill:#FFB03A;" d="M43.223,164.395
					c-0.052-0.003-0.104-0.008-0.156-0.013c-1.835-0.184-3.22-1.571-3.09-3.092l0-0.001c0.057-0.647,0.383-1.249,0.921-1.694
					c0.691-0.573,1.67-0.841,2.662-0.743c1.834,0.184,3.219,1.571,3.089,3.092c-0.056,0.647-0.383,1.248-0.921,1.694
					C45.073,164.182,44.166,164.454,43.223,164.395z M41.021,161.38c-0.082,0.953,0.882,1.831,2.149,1.958
					c0.736,0.082,1.412-0.112,1.888-0.508c0.226-0.187,0.505-0.509,0.545-0.976c0.082-0.952-0.882-1.831-2.149-1.959
					c-0.716-0.073-1.412,0.112-1.888,0.507C41.34,160.591,41.062,160.912,41.021,161.38z"/>
				<path style="clip-path:url(#SVGID_00000078747403831232307790000005021401277320792487_);fill:#FFB03A;" d="M-10.158,232.144
					c-0.052-0.003-0.104-0.008-0.156-0.013c-1.835-0.184-3.221-1.571-3.09-3.092v-0.001c0.057-0.647,0.383-1.249,0.921-1.694
					c0.691-0.573,1.665-0.846,2.662-0.743c1.835,0.184,3.22,1.571,3.088,3.092c-0.055,0.646-0.382,1.247-0.919,1.693
					C-8.308,231.93-9.213,232.202-10.158,232.144z M-12.359,229.129c-0.082,0.953,0.882,1.831,2.149,1.959
					c0.74,0.08,1.412-0.112,1.888-0.508c0.226-0.188,0.504-0.509,0.544-0.976c0.083-0.953-0.881-1.832-2.148-1.959
					c-0.709-0.066-1.411,0.112-1.888,0.507C-12.04,228.339-12.319,228.661-12.359,229.129z"/>
				<path style="clip-path:url(#SVGID_00000078747403831232307790000005021401277320792487_);fill:#FFB03A;" d="M-3.285,333.917
					c-0.052-0.003-0.104-0.007-0.156-0.013c-1.835-0.185-3.22-1.572-3.09-3.092l0-0.001c0.056-0.646,0.383-1.248,0.92-1.693
					c0.692-0.573,1.682-0.843,2.662-0.744c1.835,0.185,3.22,1.572,3.09,3.092c-0.056,0.647-0.383,1.249-0.92,1.694
					C-1.434,333.704-2.34,333.976-3.285,333.917z M-5.486,330.902c-0.082,0.953,0.882,1.831,2.149,1.958
					c0.73,0.091,1.412-0.112,1.889-0.507c0.225-0.187,0.504-0.509,0.544-0.977c0.082-0.951-0.882-1.83-2.149-1.957
					c-0.735-0.082-1.412,0.113-1.889,0.507C-5.167,330.113-5.446,330.435-5.486,330.902z"/>
				<path style="clip-path:url(#SVGID_00000078747403831232307790000005021401277320792487_);fill:#FFB03A;" d="M-42.64,379.379
					c-0.053-0.003-0.106-0.008-0.159-0.013c-1.835-0.185-3.219-1.572-3.088-3.092l0,0l0-0.001c0.056-0.646,0.382-1.247,0.919-1.693
					c0.691-0.573,1.668-0.844,2.662-0.744c1.835,0.185,3.22,1.572,3.09,3.092c-0.056,0.648-0.383,1.25-0.921,1.696
					C-40.793,379.167-41.698,379.438-42.64,379.379z M-42.529,374.871c-0.68-0.042-1.32,0.144-1.771,0.518
					c-0.225,0.187-0.503,0.508-0.543,0.975l0,0.001c-0.083,0.952,0.881,1.83,2.148,1.957c0.737,0.084,1.411-0.112,1.888-0.506
					c0.226-0.187,0.505-0.509,0.545-0.978c0.082-0.951-0.882-1.83-2.149-1.957C-42.45,374.877-42.49,374.873-42.529,374.871z
					 M-45.365,376.319l0.01,0.001L-45.365,376.319z"/>
			</g>
			<g>
				<g>
					<path style="fill:#FF797A;" d="M47.523,117.138l76.454,35.458l17.449-9.201l-7.728,15.721l47.18,22.983l15.4-7.644
						l-6.828,11.819l33.501,16.319C222.95,202.595,199.686,58.275,47.523,117.138z"/>
					<path style="fill:#FDF3EA;" d="M218.463,199.142c-18.404-53.576-62.44-72.19-96.14-78.371
						c-36.585-6.71-69.238-0.639-69.563-0.577l-0.197-1.03c0.326-0.063,33.149-6.168,69.918,0.57
						c21.617,3.961,40.357,11.518,55.697,22.461c19.188,13.688,33.075,32.733,41.276,56.606L218.463,199.142z"/>
					<path style="fill:#FDF3EA;" d="M161.728,155.719c-0.238-0.015-0.473-0.061-0.704-0.139c-0.739-0.25-1.342-0.817-1.745-1.639
						c-0.768-1.565-0.755-3.862,0.033-6.143c1.246-3.613,3.952-5.851,6.155-5.108c0.739,0.251,1.343,0.818,1.746,1.641
						c0.767,1.565,0.755,3.861-0.033,6.142C166.063,153.708,163.776,155.845,161.728,155.719z M164.702,143.599
						c-1.543-0.096-3.467,1.841-4.399,4.54v0.001c-0.688,1.993-0.72,4.039-0.083,5.339c0.281,0.574,0.666,0.947,1.14,1.108
						c1.602,0.544,3.807-1.501,4.829-4.457c0.688-1.992,0.719-4.038,0.082-5.338c-0.282-0.575-0.665-0.948-1.14-1.109
						C164.993,143.635,164.849,143.608,164.702,143.599z"/>
					<path style="fill:#FDF3EA;" d="M135.135,117.743c-0.158-0.01-0.315-0.038-0.469-0.086c-0.535-0.169-0.964-0.558-1.242-1.126
						c-0.473-0.966-0.456-2.352,0.046-3.707l0,0c0.818-2.209,2.614-3.574,4.086-3.11c0.535,0.169,0.964,0.559,1.242,1.126
						c0.473,0.967,0.456,2.352-0.047,3.706C138.017,116.525,136.501,117.827,135.135,117.743z M134.453,113.188
						c-0.397,1.074-0.431,2.178-0.086,2.881c0.15,0.307,0.358,0.505,0.615,0.586c0.773,0.254,2.129-0.703,2.785-2.475
						c0.398-1.074,0.432-2.177,0.088-2.881c-0.151-0.308-0.358-0.505-0.616-0.586C136.459,110.463,135.11,111.42,134.453,113.188
						L134.453,113.188z"/>
					<path style="fill:#FDF3EA;" d="M161.93,133.617c-0.08-0.005-0.159-0.028-0.233-0.071c-0.249-0.146-0.333-0.468-0.187-0.718
						c3.258-5.561,3.927-11.428,3.934-11.487c0.031-0.288,0.304-0.483,0.578-0.465c0.288,0.031,0.495,0.29,0.464,0.578
						c-0.027,0.248-0.695,6.141-4.071,11.904C162.311,133.536,162.121,133.629,161.93,133.617z"/>
					<path style="fill:#FDF3EA;" d="M156.296,130.954c-0.08-0.005-0.159-0.028-0.233-0.071c-0.25-0.146-0.333-0.468-0.188-0.718
						c2.7-4.608,2.586-5.836,2.553-5.997c-0.124-0.202-0.099-0.469,0.075-0.644c0.205-0.206,0.537-0.206,0.742-0.003
						c0.707,0.704-0.167,3.252-2.465,7.174C156.678,130.872,156.487,130.965,156.296,130.954z M158.505,124.264
						c0.001,0,0.001,0.001,0.001,0.001C158.506,124.265,158.506,124.264,158.505,124.264z M158.504,124.263
						c0,0,0.001,0.001,0.001,0.001S158.504,124.263,158.504,124.263z M158.503,124.262
						C158.503,124.262,158.503,124.262,158.503,124.262S158.503,124.262,158.503,124.262z M158.425,124.149L158.425,124.149
						L158.425,124.149z"/>
					<path style="fill:#FDF3EA;" d="M107.76,130.473c-0.265-0.016-0.48-0.231-0.49-0.503c-0.01-0.249-0.208-6.177,2.29-12.371
						c0.109-0.268,0.416-0.396,0.683-0.29c0.268,0.108,0.398,0.414,0.29,0.683c-2.416,5.987-2.218,11.879-2.216,11.938
						c0.012,0.29-0.214,0.533-0.504,0.544C107.796,130.474,107.778,130.474,107.76,130.473z"/>
					<path style="fill:#FDF3EA;" d="M114.41,126.971c-0.098-0.006-0.194-0.039-0.279-0.102c-0.804-0.593-0.31-3.241,1.39-7.457
						c0.11-0.268,0.415-0.395,0.683-0.29c0.268,0.109,0.398,0.414,0.29,0.683c-1.998,4.953-1.706,6.151-1.65,6.306
						c0.153,0.181,0.167,0.45,0.02,0.648C114.755,126.907,114.581,126.981,114.41,126.971z M114.758,126.029
						C114.758,126.029,114.758,126.029,114.758,126.029S114.758,126.029,114.758,126.029z M114.757,126.027
						C114.757,126.027,114.757,126.028,114.757,126.027C114.757,126.028,114.757,126.027,114.757,126.027z M114.755,126.026
						c0.001,0,0.001,0.001,0.002,0.001C114.756,126.027,114.756,126.026,114.755,126.026z M114.754,126.025
						c0,0.001,0.001,0.001,0.001,0.001C114.755,126.026,114.754,126.026,114.754,126.025z"/>
				</g>
				<g>
					<path style="fill:#6169D8;" d="M46.373,116.286l26.231,67.322l15.194,2.469l-12.929,7.591l15.601,42.366l13.156,2.534
						l-10.321,5.163l11.078,30.083C104.382,273.814,167.492,153.749,46.373,116.286z"/>
					<path style="fill:#FDF3EA;" d="M104.45,269.153l-0.988-0.351c17.665-49.796,1.607-87.209-14.975-109.826
						c-17.993-24.542-40.47-37.464-40.695-37.592l0.518-0.912c0.226,0.129,22.873,13.142,41,37.853
						C106.055,181.152,122.275,218.909,104.45,269.153z"/>
					<path style="fill:#FDF3EA;" d="M95.153,206.911c-0.181-0.011-0.356-0.035-0.524-0.073c-0.687-0.155-1.21-0.533-1.511-1.093
						c-0.887-1.65,0.466-4.453,3.079-6.38l0,0c1.726-1.271,3.57-1.849,4.924-1.54c0.687,0.155,1.21,0.533,1.51,1.093
						c0.887,1.65-0.466,4.453-3.08,6.38C98.041,206.411,96.441,206.991,95.153,206.911z M96.821,200.209
						c-2.35,1.733-3.334,4.005-2.779,5.04c0.155,0.288,0.43,0.478,0.818,0.566c1.03,0.232,2.632-0.302,4.07-1.361
						c2.35-1.733,3.334-4.005,2.779-5.04c-0.154-0.288-0.429-0.478-0.817-0.565C99.871,198.617,98.26,199.149,96.821,200.209
						L96.821,200.209z"/>
					<path style="fill:#FDF3EA;" d="M98.879,163.533c-0.101-0.006-0.199-0.02-0.294-0.041c-0.474-0.104-0.846-0.394-1.047-0.815
						c-0.535-1.117,0.222-2.921,1.76-4.195l0.001-0.001c0.99-0.82,2.07-1.208,2.904-1.021c0.474,0.104,0.846,0.393,1.048,0.815
						c0.534,1.118-0.223,2.922-1.762,4.196C100.611,163.198,99.658,163.581,98.879,163.533z M99.968,159.289
						c-1.185,0.981-1.759,2.359-1.484,2.936c0.04,0.082,0.116,0.197,0.327,0.243c0.375,0.082,1.133-0.076,2.01-0.805
						c1.184-0.98,1.76-2.359,1.484-2.936c-0.04-0.082-0.116-0.197-0.328-0.243C101.596,158.401,100.843,158.564,99.968,159.289
						L99.968,159.289z"/>
					<path style="fill:#FDF3EA;" d="M105.367,189.898c-0.181-0.011-0.352-0.117-0.438-0.292c-0.129-0.259-0.022-0.574,0.238-0.702
						c4.874-2.4,8.39-6.415,8.424-6.455c0.19-0.219,0.522-0.241,0.74-0.053c0.218,0.19,0.243,0.521,0.053,0.74
						c-0.148,0.171-3.683,4.212-8.754,6.709C105.547,189.887,105.456,189.903,105.367,189.898z"/>
					<path style="fill:#FDF3EA;" d="M103.462,184.899c-0.181-0.011-0.352-0.117-0.438-0.292c-0.129-0.259-0.022-0.574,0.238-0.702
						c4.096-2.017,4.639-2.988,4.697-3.116c0.034-0.244,0.238-0.438,0.494-0.45c0.282-0.011,0.535,0.209,0.549,0.499
						c0.024,0.515-0.628,1.719-5.277,4.009C103.641,184.888,103.551,184.904,103.462,184.899z M108.461,180.946l0.01,0.001
						L108.461,180.946z"/>
					<path style="fill:#FDF3EA;" d="M75.082,158.589c-0.09-0.006-0.178-0.034-0.258-0.087c-0.24-0.16-0.306-0.486-0.146-0.727
						c0.127-0.191,3.165-4.716,7.939-8.001c0.239-0.163,0.565-0.104,0.73,0.135c0.164,0.239,0.103,0.565-0.135,0.73
						c-4.602,3.166-7.63,7.673-7.661,7.718C75.443,158.518,75.262,158.6,75.082,158.589z"/>
					<path style="fill:#FDF3EA;" d="M80.869,159.533c-0.235-0.015-0.44-0.187-0.483-0.43c-0.156-0.859,1.542-2.559,4.783-4.789
						c0.239-0.163,0.565-0.104,0.73,0.134c0.164,0.239,0.103,0.565-0.135,0.73c-3.866,2.66-4.296,3.704-4.337,3.841
						c-0.005,0.245-0.182,0.46-0.431,0.506C80.952,159.533,80.91,159.535,80.869,159.533z"/>
				</g>
				<g>
					<path style="fill:#6169D8;" d="M54.579,124.367l-73.799-21.713l-4.469-14.73l-5.803,13.825l-44.065-9.823l-4.262-12.701
						l-3.744,10.917l-31.289-6.975C-112.852,83.165,1.329,9.311,54.579,124.367z"/>
					<path style="fill:#FDF3EA;" d="M45.752,118.963C45.596,118.757,29.797,98.2,3.078,83.633
						C-21.543,70.21-60.764,59.275-107.764,83.41l-0.48-0.933c47.426-24.354,87.007-13.304,111.858,0.254
						c26.904,14.677,42.816,35.39,42.973,35.597L45.752,118.963z"/>
					<path style="fill:#FDF3EA;" d="M-43.447,85.629c-0.233-0.015-0.458-0.06-0.67-0.138c-0.628-0.23-1.097-0.718-1.352-1.41
						c-0.508-1.37-0.151-3.37,0.955-5.348c1.674-2.996,4.443-4.809,6.293-4.13c0.628,0.23,1.097,0.718,1.353,1.41
						c0.508,1.37,0.151,3.37-0.955,5.348l0,0C-39.307,84.014-41.644,85.741-43.447,85.629z M-38.965,75.511
						c-1.255-0.078-3.259,1.274-4.633,3.734c-0.93,1.663-1.278,3.419-0.888,4.472c0.149,0.401,0.394,0.666,0.73,0.79
						c1.194,0.433,3.492-0.929,5.015-3.657l0,0c0.931-1.663,1.278-3.419,0.888-4.472c-0.148-0.401-0.394-0.666-0.73-0.79
						C-38.7,75.545-38.828,75.519-38.965,75.511z"/>
					<path style="fill:#FDF3EA;" d="M-1.876,76.061c-0.163-0.01-0.322-0.041-0.472-0.094c-0.459-0.162-0.796-0.505-0.976-0.994
						c-0.325-0.882-0.092-2.142,0.623-3.37c1.112-1.908,2.901-3.015,4.163-2.568c0.459,0.161,0.796,0.505,0.976,0.994
						c0.325,0.882,0.092,2.142-0.623,3.37C0.836,75.079-0.669,76.136-1.876,76.061z M0.92,69.986
						c-0.705-0.044-1.902,0.751-2.715,2.144c-0.542,0.932-0.757,1.906-0.545,2.48c0.07,0.191,0.182,0.311,0.341,0.367
						c0.647,0.231,2.016-0.576,2.907-2.106c0.543-0.933,0.757-1.906,0.546-2.481c-0.07-0.191-0.182-0.311-0.34-0.367
						C1.054,70.003,0.989,69.991,0.92,69.986z"/>
					<path style="fill:#FDF3EA;" d="M-29.332,71.441c-0.045-0.003-0.09-0.011-0.135-0.026c-0.275-0.092-0.422-0.389-0.329-0.664
						c1.8-5.358,5.334-9.399,5.484-9.568c0.191-0.218,0.524-0.238,0.74-0.046c0.217,0.191,0.238,0.523,0.046,0.74
						c-0.035,0.04-3.546,4.058-5.277,9.208C-28.88,71.314-29.101,71.455-29.332,71.441z"/>
					<path style="fill:#FDF3EA;" d="M-24.125,72.664c-0.045-0.003-0.09-0.011-0.135-0.026c-0.274-0.092-0.422-0.389-0.329-0.664
						c1.65-4.911,2.757-5.718,3.271-5.762c0.282-0.024,0.542,0.189,0.567,0.478c0.022,0.255-0.142,0.483-0.38,0.55
						c-0.12,0.073-1.01,0.74-2.465,5.068C-23.672,72.537-23.894,72.678-24.125,72.664z"/>
					<path style="fill:#FDF3EA;" d="M5.729,97.29c-0.134-0.008-0.266-0.068-0.362-0.177c-0.191-0.218-0.169-0.549,0.048-0.74
						c0.041-0.036,4.103-3.637,6.63-8.62c0.13-0.259,0.446-0.363,0.705-0.23c0.258,0.131,0.361,0.446,0.23,0.705
						c-2.621,5.169-6.701,8.783-6.873,8.933C5.999,97.256,5.863,97.299,5.729,97.29z"/>
					<path style="fill:#FDF3EA;" d="M4.023,91.68c-0.285-0.018-0.505-0.261-0.492-0.548c0.012-0.254,0.202-0.458,0.444-0.494
						c0.13-0.06,1.108-0.626,3.229-4.81c0.13-0.26,0.447-0.362,0.705-0.231c0.258,0.131,0.361,0.446,0.23,0.704
						c-1.778,3.509-3.237,5.419-4.109,5.379C4.028,91.68,4.026,91.68,4.023,91.68z"/>
				</g>
				<g>
					<path style="fill:#6169D8;" d="M43.032,123.589l73.439-45.443l4.921-16.843l5.794,11.818L173.26,45.49l4.669-14.687
						l3.702,9.667l32.715-19.62C214.346,20.85,100.575-15.293,43.032,123.589z"/>
					<path style="fill:#FDF3EA;" d="M48.523,120.868l-0.896-0.546c0.168-0.275,17.082-27.747,45.321-53.448
						c26.094-23.748,67.457-50.81,116.414-44.835l-0.126,1.041c-48.542-5.923-89.634,20.96-115.562,44.552
						C65.539,93.231,48.69,120.594,48.523,120.868z"/>
					<path style="fill:#FDF3EA;" d="M139.472,51.168c-0.128-0.008-0.256-0.022-0.385-0.042c-1.393-0.218-2.728-1.108-3.661-2.442
						c-1.674-2.39-1.525-5.483,0.334-6.894c0.772-0.587,1.767-0.822,2.798-0.659c1.394,0.218,2.728,1.108,3.661,2.442
						c1.673,2.39,1.524,5.483-0.335,6.894C141.21,50.979,140.365,51.223,139.472,51.168z M138.1,42.133
						c-0.643-0.04-1.228,0.127-1.706,0.49c-1.415,1.076-1.464,3.524-0.11,5.458l0,0c0.772,1.102,1.853,1.833,2.966,2.007
						c0.757,0.121,1.451-0.04,2.001-0.458c1.415-1.076,1.464-3.524,0.111-5.458c-0.771-1.101-1.852-1.833-2.965-2.007
						C138.296,42.15,138.197,42.139,138.1,42.133z"/>
					<path style="fill:#FDF3EA;" d="M97.481,57.72c-0.959-0.06-1.959-0.57-2.648-1.446c-0.609-0.774-0.881-1.708-0.748-2.564
						c0.106-0.68,0.465-1.258,1.01-1.627c1.245-0.843,3.163-0.381,4.276,1.031c0.609,0.774,0.881,1.709,0.748,2.564
						c-0.106,0.68-0.465,1.258-1.01,1.627C98.635,57.624,98.065,57.756,97.481,57.72z M96.656,52.712
						c-0.359-0.022-0.698,0.054-0.973,0.24c-0.387,0.262-0.519,0.644-0.562,0.919c-0.09,0.569,0.107,1.208,0.536,1.754
						c0.765,0.972,2.077,1.341,2.864,0.811c0.386-0.262,0.518-0.644,0.561-0.919c0.09-0.569-0.107-1.208-0.536-1.754
						C98.048,53.132,97.32,52.753,96.656,52.712z"/>
					<path style="fill:#FDF3EA;" d="M127.512,42.2c-0.2-0.012-0.384-0.14-0.459-0.34c-1.686-4.513-5.221-7.187-5.257-7.213
						c-0.231-0.173-0.28-0.502-0.107-0.734c0.173-0.231,0.5-0.281,0.733-0.108c0.155,0.115,3.814,2.874,5.614,7.688
						c0.101,0.271-0.037,0.574-0.308,0.675C127.657,42.194,127.583,42.204,127.512,42.2z"/>
					<path style="fill:#FDF3EA;" d="M122.065,45.529c-0.2-0.013-0.384-0.14-0.459-0.34c-1.324-3.543-2.185-4.011-2.312-4.063
						c-0.236,0.016-0.465-0.133-0.536-0.373c-0.083-0.278,0.074-0.57,0.352-0.653c0.572-0.172,1.793,0.212,3.48,4.722
						c0.101,0.271-0.036,0.573-0.308,0.675C122.21,45.524,122.136,45.534,122.065,45.529z M119.41,41.105l-0.001,0L119.41,41.105z"
						/>
					<path style="fill:#FDF3EA;" d="M90.526,82.621c-0.066-0.004-0.133-0.021-0.197-0.052c-0.178-0.087-4.419-2.179-7.088-6.473
						c-0.153-0.246-0.078-0.569,0.168-0.722c0.245-0.153,0.568-0.078,0.722,0.169c2.504,4.028,6.616,6.063,6.657,6.083
						c0.26,0.127,0.369,0.44,0.242,0.701C90.935,82.524,90.732,82.634,90.526,82.621z"/>
					<path style="fill:#FDF3EA;" d="M92.268,76.222c-0.645-0.04-1.893-0.712-3.952-4.025c-0.153-0.246-0.077-0.569,0.168-0.722
						c0.245-0.152,0.569-0.077,0.722,0.169c2.023,3.255,2.994,3.508,3.116,3.527c0.241-0.051,0.495,0.069,0.597,0.305
						c0.114,0.267-0.009,0.575-0.276,0.689C92.554,76.202,92.43,76.232,92.268,76.222z M92.232,75.199l-0.001,0L92.232,75.199z
						 M92.234,75.198c-0.001,0-0.001,0-0.001,0S92.233,75.199,92.234,75.198z"/>
				</g>
				<g>
					<path style="fill:#FF797A;" d="M48.975,119.541L14.564,50.932l5.325-13.098L8.655,41.911L-13.419-0.59l4.337-11.63
						l-8.347,3.908l-15.674-30.179C-33.104-38.491,79.124,2.158,48.975,119.541z"/>
					<path style="fill:#FDF3EA;" d="M46.019,114.876c0.016-0.261,1.485-26.419-7.166-57.728
						c-7.974-28.861-26.428-68.135-69.061-91.334l0.5-0.921c42.969,23.382,61.555,62.94,69.581,92.008
						c8.69,31.472,7.209,57.777,7.193,58.039L46.019,114.876z"/>
					<path style="fill:#FDF3EA;" d="M12.594,22.458c-2.03-0.126-3.816-1.098-4.424-2.545c-0.316-0.753-0.273-1.566,0.12-2.292
						c0.581-1.069,1.823-1.846,3.41-2.132c2.675-0.482,5.39,0.589,6.168,2.445c0.316,0.752,0.273,1.566-0.121,2.291
						c-0.58,1.069-1.823,1.846-3.41,2.132C13.752,22.462,13.164,22.494,12.594,22.458z M13.344,16.439
						c-0.48-0.03-0.973-0.004-1.457,0.083c-1.254,0.225-2.253,0.823-2.674,1.6c-0.246,0.453-0.271,0.919-0.076,1.385
						c0.576,1.372,2.875,2.204,5.015,1.818c1.254-0.226,2.254-0.824,2.674-1.6c0.246-0.453,0.271-0.919,0.076-1.384
						C16.456,17.279,14.981,16.54,13.344,16.439z"/>
					<path style="fill:#FDF3EA;" d="M42.378,49.32c-1.242-0.077-2.342-0.784-2.714-1.842c-0.21-0.599-0.154-1.236,0.16-1.795
						c0.38-0.676,1.096-1.171,1.965-1.356c1.613-0.347,3.243,0.431,3.713,1.767c0.211,0.599,0.154,1.236-0.16,1.795
						c-0.38,0.676-1.096,1.171-1.965,1.357C43.041,49.317,42.705,49.34,42.378,49.32z M42.7,45.301
						c-0.228-0.014-0.462,0.001-0.692,0.05c-0.575,0.123-1.038,0.43-1.27,0.844c-0.166,0.296-0.195,0.619-0.085,0.934
						c0.288,0.82,1.439,1.316,2.504,1.089l0,0c0.575-0.123,1.039-0.431,1.271-0.844c0.166-0.297,0.195-0.62,0.085-0.935
						C44.286,45.799,43.531,45.353,42.7,45.301z"/>
					<path style="fill:#FDF3EA;" d="M25.722,22.865c-0.183-0.011-0.356-0.119-0.44-0.297c-0.125-0.261-0.015-0.575,0.247-0.699
						c4.122-1.971,8.602-1.651,8.793-1.635c0.289,0.022,0.504,0.274,0.482,0.563c-0.022,0.29-0.314,0.486-0.564,0.483
						c-0.047-0.006-4.401-0.31-8.259,1.535C25.897,22.854,25.809,22.871,25.722,22.865z"/>
					<path style="fill:#FDF3EA;" d="M28.297,27.928c-0.183-0.011-0.356-0.119-0.441-0.297c-0.125-0.261-0.015-0.575,0.247-0.7
						c3.974-1.899,5.069-1.342,5.356-1.015c0.191,0.218,0.168,0.549-0.05,0.74c-0.194,0.172-0.484,0.171-0.676,0.012
						c-0.11-0.041-1.028-0.296-4.178,1.21C28.472,27.917,28.384,27.933,28.297,27.928z"/>
					<path style="fill:#FDF3EA;" d="M36.496,68.641c-1.846-0.115-3.129-0.41-3.229-0.434c-0.282-0.066-0.457-0.348-0.391-0.63
						c0.067-0.281,0.343-0.46,0.631-0.39c0.045,0.009,4.522,1.036,8.794-0.065c0.282-0.072,0.568,0.098,0.639,0.377
						c0.072,0.28-0.097,0.566-0.377,0.639C40.388,68.698,38.201,68.747,36.496,68.641z"/>
					<path style="fill:#FDF3EA;" d="M36.403,63.529c-0.94-0.058-1.29-0.338-1.419-0.522c-0.167-0.237-0.11-0.564,0.127-0.73
						c0.216-0.151,0.502-0.118,0.68,0.066c0.095,0.055,1.001,0.485,4.55-0.429c0.281-0.073,0.567,0.097,0.639,0.377
						c0.072,0.28-0.097,0.566-0.377,0.639C38.556,63.457,37.243,63.581,36.403,63.529z"/>
				</g>
				<g>
					<path style="fill:#FF797A;" d="M-71.919,211.013l52.061-41.376l-3.497-11.547l11.905,6.531l33.106-25.399l-2.663-10.133
						l8.677,5.518l27.217-15.443C54.889,119.165-83.409,112.919-71.919,211.013z"/>
					<path style="fill:#FDF3EA;" d="M-67.762,208.334l-1.037-0.165c0.033-0.204,3.427-20.628,19.328-41.831
						c14.669-19.56,43.285-43.825,96.312-48.343l0.089,1.045c-52.612,4.483-80.99,28.515-95.531,47.886
						C-64.363,187.925-67.73,208.133-67.762,208.334z"/>
					<path style="fill:#FDF3EA;" d="M-10.805,148.706c-1.107-0.069-2.315-0.321-3.464-0.76l0,0
						c-1.947-0.743-3.232-1.834-3.436-2.917c-0.105-0.558,0.082-1.086,0.525-1.489c1.214-1.1,4.348-1.13,7.134-0.066
						c1.946,0.743,3.231,1.833,3.435,2.916c0.105,0.558-0.082,1.087-0.526,1.49C-7.849,148.527-9.226,148.804-10.805,148.706z
						 M-13.894,146.966c2.573,0.981,5.256,0.861,6.053,0.137c0.225-0.204,0.225-0.385,0.199-0.519
						c-0.108-0.574-1.009-1.455-2.778-2.131c-2.613-0.997-5.239-0.876-6.054-0.137c-0.225,0.204-0.225,0.384-0.199,0.518
						C-16.565,145.409-15.665,146.291-13.894,146.966L-13.894,146.966z"/>
					<path style="fill:#FDF3EA;" d="M-50.482,160.285c-0.736-0.046-1.51-0.219-2.17-0.471l-0.001-0.001
						c-1.254-0.479-2.054-1.174-2.192-1.907c-0.077-0.409,0.059-0.796,0.381-1.088c0.905-0.822,2.992-0.654,4.496-0.08
						c1.255,0.479,2.054,1.174,2.192,1.907c0.077,0.409-0.059,0.795-0.38,1.088C-48.664,160.194-49.543,160.344-50.482,160.285z
						 M-52.279,158.835c1.549,0.591,3.034,0.469,3.416,0.123c0.065-0.06,0.06-0.088,0.054-0.117
						c-0.043-0.231-0.488-0.721-1.536-1.121c-1.549-0.59-3.033-0.471-3.416-0.123c-0.065,0.06-0.06,0.088-0.055,0.118
						C-53.771,157.945-53.325,158.435-52.279,158.835L-52.279,158.835z"/>
					<path style="fill:#FDF3EA;" d="M-27.035,145.088c-0.087-0.005-0.174-0.032-0.251-0.083c-4.069-2.622-9.102-3.732-9.152-3.743
						c-0.284-0.061-0.463-0.34-0.402-0.623c0.061-0.284,0.348-0.46,0.623-0.402c0.214,0.046,5.271,1.162,9.498,3.886
						c0.244,0.157,0.314,0.481,0.157,0.725C-26.668,145.014-26.852,145.099-27.035,145.088z"/>
					<path style="fill:#FDF3EA;" d="M-30.916,148.13c-0.087-0.005-0.174-0.032-0.251-0.083c-3.671-2.365-4.676-2.255-4.717-2.251
						c-0.266,0.109-0.539-0.027-0.649-0.295c-0.111-0.268,0.052-0.586,0.319-0.697c0.357-0.149,1.619-0.214,5.614,2.361
						c0.244,0.157,0.314,0.481,0.157,0.725C-30.55,148.056-30.733,148.142-30.916,148.13z"/>
					<path style="fill:#FDF3EA;" d="M-44.376,177.077c-0.008-0.001-0.016-0.001-0.024-0.002c-0.224-0.025-5.534-0.626-10.368-2.87
						c-0.262-0.122-0.377-0.434-0.254-0.697c0.122-0.263,0.432-0.378,0.697-0.255c4.678,2.173,9.986,2.773,10.039,2.779
						c0.288,0.032,0.496,0.29,0.464,0.578C-43.852,176.89-44.098,177.094-44.376,177.077z"/>
					<path style="fill:#FDF3EA;" d="M-46.148,172.71c-0.806-0.05-2.374-0.439-5.407-1.848c-0.263-0.122-0.376-0.434-0.255-0.697
						c0.122-0.263,0.432-0.378,0.697-0.255c4.225,1.963,5.222,1.76,5.264,1.751c0.253-0.139,0.534-0.031,0.674,0.223
						c0.139,0.254,0.009,0.589-0.245,0.728C-45.529,172.673-45.742,172.735-46.148,172.71z"/>
				</g>
				<path style="fill:none;" d="M53.191,129.245"/>
			</g>
		</g>
		<g style="clip-path:url(#SVGID_00000121972538435141736770000011758278003805745063_);">
			<g>
				<path style="fill:#FF797A;" d="M713.953,518.582c2.737,2.224-9.187,15.767-17.615,24.728
					c14.796,1.494,39.168-6.425,39.168-6.425s20.114,9.399,41.575-0.216c-5.661-10.329-13.11-25.179-9.606-25.855
					c3.218-0.61,15.211,7.437,24.156,14.162c10.094-13.965,22.395-32.004,22.28-56.04c-16.318-1.897-50.94-12.671-50.686-18.253
					c0.245-5.321,25.927-9.883,42.277-12.251c-1.625-7.575-4.115-14.604-7.555-20.685c-6.656-11.749-16.745-24.155-27.224-35.457
					c-12.018,7.458-26.912,15.458-29.307,10.896c-2.41-4.58,7.269-15.84,16.009-24.558c-15.876-15.582-29.537-26.688-29.537-26.688
					s-14.577,13.407-31.105,30.029c5.568,15.419,14.148,41.389,9.297,42.401c-4.204,0.873-17.891-12.394-27.974-22.927
					c-13.857,15.057-25.677,29.706-27.606,37.599c-1.29,5.319-0.448,14.887,1.839,26.295c17.741,2.136,46.384,6.286,45.596,10.707
					c-0.848,4.741-25.82,11-39.379,13.77c5.297,17.524,12.376,35.494,19.365,47.648
					C689.396,523.361,710.933,516.141,713.953,518.582z"/>
				<path style="fill:none;stroke:#FCF4E9;stroke-width:0.6635;stroke-linecap:round;stroke-miterlimit:10;" d="M774.526,407.161
					c0,0-34.468,16.268-45.392,30.988"/>
				<path style="fill:none;stroke:#FCF4E9;stroke-width:0.6635;stroke-linecap:round;stroke-miterlimit:10;" d="M679.026,429.904
					c0,0,35.111,15.277,50.985,29.268"/>
				<path style="fill:none;stroke:#FCF4E9;stroke-width:0.6635;stroke-linecap:round;stroke-miterlimit:10;" d="M787.38,492.137
					c0,0-31.226-14.625-55.275-4.844"/>
				
					<line style="fill:none;stroke:#FCF4E9;stroke-width:0.6635;stroke-linecap:round;stroke-miterlimit:10;" x1="683.839" y1="501.164" x2="730.558" y2="476.319"/>
				<path style="fill:none;stroke:#FCF4E9;stroke-width:0.6635;stroke-linecap:round;stroke-miterlimit:10;" d="M748.283,438.159
					c0.656,2.462,4.704,3.521,9.042,2.366c4.338-1.156,7.323-4.088,6.667-6.55c-0.656-2.462-4.704-3.521-9.042-2.365
					C750.612,432.764,747.627,435.697,748.283,438.159z"/>
				<g>
					<defs>
						<path id="SVGID_00000129168227646019554510000007919628577770531981_" d="M713.97,518.646
							c2.738,2.224-9.187,15.767-17.614,24.728c14.795,1.494,39.168-6.425,39.168-6.425s20.114,9.399,41.575-0.216
							c-5.661-10.329-13.11-25.18-9.606-25.855c3.218-0.61,15.211,7.437,24.156,14.162c10.094-13.964,16.442-38.656,16.327-62.693
							c-16.318-1.897-44.987-6.018-44.733-11.6c0.245-5.321,25.927-9.883,42.277-12.251c-1.625-7.575-4.115-14.604-7.554-20.685
							c-6.656-11.748-16.745-24.155-27.224-35.457c-12.018,7.458-26.912,15.458-29.307,10.896
							c-2.411-4.58,7.269-15.84,16.008-24.559c-15.876-15.581-29.537-26.688-29.537-26.688s-14.577,13.407-31.105,30.029
							c5.568,15.419,14.148,41.389,9.297,42.401c-4.203,0.873-17.891-12.394-27.974-22.927
							c-13.857,15.057-25.677,29.706-27.606,37.599c-1.29,5.319-0.448,14.888,1.839,26.295c17.741,2.136,46.384,6.286,45.596,10.707
							c-0.848,4.741-25.82,11-39.379,13.77c5.297,17.524,12.376,35.494,19.365,47.648
							C689.413,523.425,710.95,516.205,713.97,518.646z"/>
					</defs>
					<clipPath id="SVGID_00000076577481311127779230000014239756662297344413_">
						<use xlink:href="#SVGID_00000129168227646019554510000007919628577770531981_"  style="overflow:visible;"/>
					</clipPath>
					
						<path style="clip-path:url(#SVGID_00000076577481311127779230000014239756662297344413_);fill:none;stroke:#FCF4E9;stroke-width:0.6635;stroke-linecap:round;stroke-miterlimit:10;" d="
						M728.146,301.654c0,0-4.741,158.384,12.382,277.433"/>
				</g>
			</g>
			<g>
				<path style="fill:#6169D8;" d="M606.125,370.99c0,0,7.39,30.625,22.09,62.34C628.215,433.33,590.231,411.943,606.125,370.99z"/>
				<path style="fill:#6169D8;" d="M638.87,453.514c0,0-17.672-25.581-54.306-36.243
					C584.565,417.271,603.151,450.258,638.87,453.514z"/>
				<path style="fill:#6169D8;" d="M647.079,468.748c0,0-30.008-15.158-70.311-6.344
					C576.767,462.404,611.472,484.121,647.079,468.748z"/>
				<path style="fill:#6169D8;" d="M664.424,492.346c0,0-30.008-15.158-70.311-6.344
					C594.112,486.001,628.817,507.719,664.424,492.346z"/>
				<path style="fill:#6169D8;" d="M676.275,504.251c0,0-33.087-5.957-69.195,14C607.08,518.251,646.542,529.153,676.275,504.251z"
					/>
				<path style="fill:#6169D8;" d="M695.63,520.933c0,0-33.088-5.957-69.195,14C626.435,534.932,665.897,545.835,695.63,520.933z"/>
				<path style="fill:#6169D8;" d="M713.248,530.47c0,0-33.434,3.529-62.523,32.784C650.725,563.253,691.661,562.691,713.248,530.47
					z"/>
				<path style="fill:#6169D8;" d="M630.98,438.319c0,0-5.655-23.311,0.894-52.266C631.874,386.052,645.82,413.984,630.98,438.319z"
					/>
				<path style="fill:#6169D8;" d="M641.181,458.465c0,0,0.021-20.387,12.975-55.992
					C654.156,402.472,665.387,438.72,641.181,458.465z"/>
				<path style="fill:#6169D8;" d="M656.345,481.299c0,0-3.718-35.367,18.86-60.594
					C675.205,420.705,683.896,458.825,656.345,481.299z"/>
				<path style="fill:#6169D8;" d="M671.658,499.82c0,0-3.718-35.368,18.86-60.594C690.518,439.225,699.209,477.346,671.658,499.82z
					"/>
				<path style="fill:#6169D8;" d="M690.009,516.159c0,0-3.718-35.368,18.86-60.594C708.869,455.565,717.56,493.685,690.009,516.159
					z"/>
				<path style="fill:#6169D8;" d="M708.517,528.012c0,0-3.718-35.367,18.86-60.594
					C727.377,467.418,736.068,505.538,708.517,528.012z"/>
				<path style="fill:none;stroke:#6169D8;stroke-width:0.6635;stroke-linecap:round;stroke-miterlimit:10;" d="M606.125,370.99
					c0,0,38.101,162.846,145.099,169.355"/>
			</g>
		</g>
		<g style="clip-path:url(#SVGID_00000121972538435141736770000011758278003805745063_);">
			<path style="fill:#6169D8;" d="M585.18,228.01c9.571,14.149,21.241,25.918,33.921,35.714l20.709-2.496l-9.48,10.499
				c13.103,8.642,26.909,15.437,40.346,20.772l20.998-17.213l-9.129,21.601c37.787,12.968,69.95,14.834,71.23,14.834l-1.226-93.805
				L633.7,184.672c5.128,12.517,12.409,23.26,20.367,32.298c8.003-2.325,19.43-5.704,19.844-5.848
				c0.388-0.126-7.75,6.47-14.338,11.76c20.908,21.16,43.924,31.208,43.924,31.208L585.18,228.01z"/>
			
				<line style="fill:none;stroke:#FCF4E9;stroke-width:0.6759;stroke-linecap:round;stroke-miterlimit:10;" x1="703.497" y1="254.09" x2="756.093" y2="267.277"/>
			
				<line style="fill:none;stroke:#FCF4E9;stroke-width:0.6759;stroke-linecap:round;stroke-miterlimit:10;" x1="711.995" y1="305.44" x2="765.888" y2="296.781"/>
			<g>
				<defs>
					<path id="SVGID_00000057108320772576515020000001778669485698957192_" d="M585.18,227.836
						c9.571,14.149,21.241,25.918,33.921,35.714l20.709-2.496l-9.48,10.499c13.103,8.642,26.909,15.437,40.346,20.772l20.998-17.213
						l-9.129,21.601c37.787,12.968,69.95,14.833,71.23,14.833l-1.226-93.805L633.7,184.498c5.128,12.518,12.409,23.26,20.367,32.299
						c8.003-2.325,19.43-5.705,19.844-5.849c0.388-0.126-7.75,6.47-14.338,11.76c20.908,21.16,43.924,31.208,43.924,31.208
						L585.18,227.836z"/>
				</defs>
				<clipPath id="SVGID_00000032613780548565757300000007971479979319350690_">
					<use xlink:href="#SVGID_00000057108320772576515020000001778669485698957192_"  style="overflow:visible;"/>
				</clipPath>
				
					<line style="clip-path:url(#SVGID_00000032613780548565757300000007971479979319350690_);fill:none;stroke:#FCF4E9;stroke-width:0.6759;stroke-linecap:round;stroke-miterlimit:10;" x1="680.607" y1="242.115" x2="637.436" y2="296.775"/>
				
					<line style="clip-path:url(#SVGID_00000032613780548565757300000007971479979319350690_);fill:none;stroke:#FCF4E9;stroke-width:0.6759;stroke-linecap:round;stroke-miterlimit:10;" x1="648.577" y1="235.5" x2="591.131" y2="256.389"/>
				
					<line style="clip-path:url(#SVGID_00000032613780548565757300000007971479979319350690_);fill:none;stroke:#FCF4E9;stroke-width:0.6759;stroke-linecap:round;stroke-miterlimit:10;" x1="734.571" y1="200.336" x2="692.793" y2="249.426"/>
				
					<line style="clip-path:url(#SVGID_00000032613780548565757300000007971479979319350690_);fill:none;stroke:#FCF4E9;stroke-width:0.6759;stroke-linecap:round;stroke-miterlimit:10;" x1="708.808" y1="196.158" x2="662.851" y2="234.455"/>
				
					<line style="clip-path:url(#SVGID_00000032613780548565757300000007971479979319350690_);fill:none;stroke:#FCF4E9;stroke-width:0.6759;stroke-linecap:round;stroke-miterlimit:10;" x1="716.467" y1="325.672" x2="729.836" y2="260.913"/>
			</g>
		</g>
	</g>
	<g>
		<g>
			<path style="fill:#CF4C51;" d="M311.241,274.662c0,0-11.234,5.7-31.119,13.34c-4.356,1.671-9.122,3.439-14.28,5.26
				c-2.504,0.88-5.104,1.781-7.789,2.685c-0.71,0.239-1.424,0.47-2.142,0.714c-4.74,1.581-9.762,3.176-15.03,4.777
				c-1.213,0.364-2.434,0.734-3.676,1.103c-0.61,0.185-1.234,0.365-1.865,0.551c-3.12,0.917-6.329,1.829-9.619,2.731
				c-1.31,0.364-2.641,0.729-3.977,1.086c-0.167,0.049-0.339,0.089-0.507,0.138c-3.856,1.03-7.818,2.043-11.874,3.043
				c-0.75,0.186-1.513,0.368-2.275,0.55c-2.426,0.59-4.891,1.168-7.382,1.738c-1.195,0.279-2.398,0.542-3.606,0.817
				c-3.846,0.852-7.756,1.685-11.752,2.48c-5.23,1.062-10.576,2.07-16.047,3.006c-1.311,0.224-2.622,0.449-3.946,0.67
				c-0.118,0.021-0.235,0.043-0.353,0.064c-1.328,0.213-2.657,0.425-3.994,0.642c-2.342,0.37-4.709,0.733-7.086,1.08
				c-1.098,0.161-2.204,0.327-3.306,0.48c-4.506,0.632-9.09,1.221-13.722,1.761c-1.634,0.186-3.273,0.364-4.911,0.542
				c-7.174,0.762-14.497,1.41-21.949,1.904c-11.86,0.792-24.048,1.224-36.507,1.201c0,0,36.933-63.928,101.609-83.383
				c3.4-1.016,6.868-1.909,10.417-2.673c0.017-0.009,0.029-0.005,0.046-0.014c0.214-0.042,0.424-0.093,0.638-0.135
				c0.458-0.09,0.923-0.184,1.381-0.274c1.306-0.254,2.616-0.5,3.953-0.717c1.917-0.32,3.856-0.599,5.81-0.831
				C229.202,235.096,267.791,243.353,311.241,274.662z"/>
			<path style="fill:#FFFFFF;" d="M280.122,288.002c-4.356,1.671-9.122,3.439-14.28,5.26c-2.504,0.88-5.104,1.781-7.789,2.685
				c-0.71,0.239-1.424,0.47-2.142,0.714c-4.74,1.581-9.762,3.176-15.03,4.777c-1.208,0.373-2.434,0.734-3.676,1.103
				c-0.61,0.185-1.234,0.365-1.865,0.551c-3.12,0.917-6.329,1.829-9.619,2.731c-1.31,0.364-2.633,0.724-3.977,1.086
				c-0.167,0.049-0.339,0.089-0.507,0.138c-3.856,1.03-7.818,2.043-11.874,3.043c-0.75,0.186-1.513,0.368-2.275,0.55
				c-2.426,0.59-4.891,1.168-7.382,1.738c-1.195,0.279-2.398,0.542-3.606,0.817c-3.846,0.852-7.756,1.685-11.752,2.48
				c-5.23,1.062-10.58,2.062-16.047,3.006c-1.311,0.224-2.622,0.449-3.946,0.67c-0.118,0.021-0.235,0.043-0.353,0.064
				c-1.328,0.213-2.657,0.425-3.994,0.642c-2.342,0.37-4.709,0.733-7.086,1.08c-1.098,0.161-2.204,0.327-3.306,0.48
				c-4.506,0.632-9.09,1.221-13.722,1.761c-1.634,0.186-3.273,0.364-4.911,0.542c-7.174,0.762-14.497,1.41-21.949,1.904
				c7.706-24.814,37.41-66.789,66.274-81.208c3.104-1.555,6.19-2.788,9.245-3.647c0.017-0.009,0.029-0.005,0.046-0.014
				c0.226-0.059,0.439-0.123,0.675-0.166c0.418-0.122,0.846-0.228,1.274-0.312l0.005,0.008c1.329-0.31,2.679-0.523,4.018-0.656
				c1.677-0.167,3.426-0.222,5.244-0.154C221.859,240.535,260.256,264.417,280.122,288.002z"/>
			<path style="fill:#CF4C51;" d="M221.237,307.046c-3.856,1.03-7.818,2.043-11.874,3.043c-0.75,0.186-1.513,0.368-2.275,0.55
				c-2.426,0.59-4.891,1.168-7.382,1.738c-1.195,0.279-2.398,0.542-3.606,0.817c-3.846,0.852-7.756,1.685-11.752,2.48
				c-5.23,1.062-10.58,2.062-16.047,3.006c-1.311,0.224-2.622,0.449-3.946,0.67c-0.118,0.021-0.235,0.043-0.353,0.064
				c-1.328,0.213-2.657,0.425-3.994,0.642c0.85-20.766,5.279-53.917,21.031-74.375c1.321-1.718,2.712-3.346,4.197-4.863
				c0.004-0.013,0.02-0.022,0.037-0.031c0.24-0.251,0.488-0.506,0.741-0.752c0,0,0.183,0.137,0.533,0.44l0.005,0.008
				c0.022,0.02,0.044,0.041,0.066,0.061c0.622,0.542,1.693,1.55,3.121,3.127C196.014,250.598,209.193,268.571,221.237,307.046z"/>
		</g>
		<path style="fill:#FF9E2F;" d="M182.74,241.362l-1.931-15.941c-0.081-0.669,0.356-1.291,1.013-1.441l0,0
			c0.664-0.151,1.334,0.229,1.544,0.876l4.946,15.243C188.313,240.1,185.727,241.809,182.74,241.362z"/>
		<path style="fill:#FF9E2F;" d="M196.379,238.997c-0.164,0.231-0.355,0.454-0.566,0.678c-1.364,1.483-3.487,2.898-6.076,3.997
			c-0.795,0.34-1.637,0.652-2.515,0.919c-2.178,0.669-4.292,1.021-6.184,1.091c-2.362,0.079-4.377-0.291-5.731-1.067
			c-0.476-0.278-0.869-0.601-1.172-0.974c3.4-1.016,6.868-1.909,10.417-2.673c0.017-0.009,0.029-0.005,0.046-0.014
			c0.226-0.059,0.439-0.123,0.675-0.166c0.24-0.251,0.488-0.506,0.741-0.752c0,0,0.183,0.137,0.533,0.44l0.005,0.008
			c1.329-0.31,2.679-0.523,4.018-0.656C192.486,239.508,194.425,239.23,196.379,238.997z"/>
		<g>
			<defs>
				<path id="SVGID_00000180345376532220044680000018244872143084348077_" d="M72.526,327.024c0,0,39.624-73.138,114.025-86.54
					c73.25-13.195,121.569,33.841,121.569,33.841S200.445,328.337,72.526,327.024z"/>
			</defs>
			<clipPath id="SVGID_00000155847664345561562420000000152725887286482068_">
				<use xlink:href="#SVGID_00000180345376532220044680000018244872143084348077_"  style="overflow:visible;"/>
			</clipPath>
			
				<path style="clip-path:url(#SVGID_00000155847664345561562420000000152725887286482068_);fill:none;stroke:#3B282E;stroke-width:0.5404;stroke-linecap:round;stroke-miterlimit:10;" d="
				M151.523,248.624c1.097,4.219,40.24,17.815,72.657-19.469"/>
		</g>
		<path style="fill:#BB3339;" d="M311.243,274.662c-40.007,17.934-76.172,29.946-107.554,37.94
			c-1.226,0.317-2.445,0.619-3.658,0.921c-79.663,19.757-127.509,13.501-127.509,13.501c45.692-14.073,87.66-24.603,123.237-32.382
			c1.243-0.267,2.471-0.541,3.692-0.8C267.52,279.135,311.243,274.662,311.243,274.662z"/>
		<path style="fill:#FF9E2F;" d="M237.508,468.298c-0.155,0.079-0.318,0.145-0.496,0.182c-1.021,0.235-2.032-0.403-2.26-1.424
			l-34.72-153.534l-4.272-18.881c1.243-0.267,2.471-0.541,3.692-0.8l4.238,18.76l34.746,153.619
			C238.626,467.063,238.225,467.904,237.508,468.298z"/>
	</g>
	<g>
		<polygon style="fill:#FEB98F;" points="135.549,430.088 99.976,475.108 490.211,474.928 509.46,435.697 		"/>
		<path style="fill:none;stroke:#3B282E;stroke-linecap:round;stroke-miterlimit:10;" d="M113.072,426.922
			c0,0,314.639,5.621,420.178,8.278"/>
		<path style="fill:none;stroke:#3B282E;stroke-linecap:round;stroke-miterlimit:10;" d="M96.53,439.918
			c0,0,355.069-2.953,433.69,6.602"/>
		<path style="fill:none;stroke:#3B282E;stroke-linecap:round;stroke-miterlimit:10;" d="M86.301,454.891
			c0,0,361.258-5.577,439.879,3.979"/>
		<path style="fill:none;stroke:#3B282E;stroke-linecap:round;stroke-miterlimit:10;" d="M76.068,471.451
			c0,0,365.396-7.728,444.017,1.828"/>
		<polygon style="fill:#CF4C51;" points="135.549,426.415 99.976,471.435 490.211,471.254 509.46,432.023 		"/>
	</g>
	<g>
		<path style="fill:#FEB98F;" d="M306.652,392.621c0,2.36-13.776,4.273-30.769,4.273c-16.993,0-30.769-1.913-30.769-4.273
			c0-2.36,13.776-4.273,30.769-4.273C292.877,388.348,306.652,390.261,306.652,392.621z"/>
		<g>
			<path style="fill:#FF797A;" d="M293.193,388.022c-3.797,1.741-8.014,2.71-12.46,2.71c-12.918,0-23.925-8.179-28.121-19.644
				c4.42-12.562,19.59-21.561,19.59-21.561S273.421,375.077,293.193,388.022z"/>
			<path style="fill:#6169D8;" d="M272.202,349.528c-7.529-2.354-13.903-2.024-18.962-0.586
				c4.414-10.24,14.382-17.519,26.113-18.051C271.856,337.866,272.202,349.528,272.202,349.528z"/>
			<path style="fill:#CF4C51;" d="M272.202,349.528c0,0-15.171,8.999-19.59,21.561c-1.177-3.211-1.816-6.678-1.816-10.293
				c0-4.212,0.868-8.222,2.444-11.853C258.299,347.504,264.673,347.174,272.202,349.528z"/>
			<path style="fill:#FFB03A;" d="M310.669,360.796c0,1.39-0.096,2.758-0.282,4.095c-8.051-1.709-20.884-5.767-38.185-15.362
				c11.113-7.503,23.046-8.499,31.556-7.86C308.076,346.855,310.669,353.522,310.669,360.796z"/>
			<path style="fill:#CF4C51;" d="M272.202,349.528c0,0-0.346-11.662,7.151-18.637c0.458-0.021,0.916-0.032,1.379-0.032
				c9.26,0,17.54,4.207,23.025,10.81C295.248,341.029,283.315,342.025,272.202,349.528z"/>
			<path style="fill:#CF4C51;" d="M310.387,364.89c-1.406,10.309-8.067,18.951-17.194,23.132
				c-19.772-12.945-20.991-38.494-20.991-38.494C289.503,359.124,302.336,363.181,310.387,364.89z"/>
			<path style="fill:#FFFFFF;" d="M303.758,341.668c-8.509-0.639-20.442,0.357-31.556,7.86c0,0-0.346-11.662,7.151-18.637
				c0.458-0.021,0.916-0.032,1.379-0.032C289.993,330.859,298.273,335.066,303.758,341.668z"/>
			<path style="fill:#FFFFFF;" d="M272.202,349.528c0,0-15.171,8.999-19.59,21.561c-1.177-3.211-1.816-6.678-1.816-10.293
				c0-4.212,0.868-8.222,2.444-11.853C258.299,347.504,264.673,347.174,272.202,349.528z"/>
			<path style="fill:#FFFFFF;" d="M310.387,364.89c-1.406,10.309-8.067,18.951-17.194,23.132
				c-19.772-12.945-20.991-38.494-20.991-38.494C289.503,359.124,302.336,363.181,310.387,364.89z"/>
			<path style="fill:#FFFFFF;" d="M275.766,347.023c1.311,1.311,0.952,3.795-0.802,5.548c-1.754,1.753-4.238,2.112-5.548,0.801
				c-1.311-1.311-0.952-3.795,0.801-5.548C271.971,346.071,274.455,345.712,275.766,347.023z"/>
			<path style="fill:none;stroke:#FCF4E9;stroke-width:0.7587;stroke-linecap:round;stroke-miterlimit:10;" d="M274.593,348.175
				c0.911,0.911,0.661,2.637-0.557,3.856c-1.219,1.219-2.945,1.468-3.856,0.557c-0.911-0.911-0.661-2.637,0.557-3.856
				C271.956,347.513,273.682,347.264,274.593,348.175z"/>
		</g>
	</g>
	<g>
		<path style="fill:#6CAD52;" d="M420.458,418.427c-0.319,1.799-0.746,3.542-1.267,5.241c-1.634,5.249-4.214,10.01-7.526,14.103
			c-1.885,2.335-3.996,4.446-6.302,6.323c-5.466,4.442-12.006,7.514-19.04,8.836c-3.319,0.627-6.742,0.862-10.226,0.665
			c-1.692-0.099-3.394-0.291-5.104-0.594c-5.388-0.955-10.364-2.887-14.769-5.569c-2.747-1.675-5.267-3.648-7.534-5.859
			c-3.851-3.744-6.972-8.209-9.173-13.114c-1.117-2.464-1.993-5.051-2.618-7.711c-1.295-5.485-1.515-11.309-0.469-17.21
			c0.094-0.532,0.197-1.062,0.317-1.58l83.959,14.877C420.638,417.362,420.552,417.895,420.458,418.427z"/>
		<path style="fill:#479C26;" d="M349.222,414.843l1.04,3.52l-10.745,10.096c-1.117-2.464-1.993-5.051-2.618-7.711L349.222,414.843z
			"/>
		<path style="fill:#479C26;" d="M359.521,429.289l5.029,2.564l-8.326,15.578c-2.747-1.675-5.267-3.648-7.534-5.859L359.521,429.289
			z"/>
		<path style="fill:#479C26;" d="M382.646,434.584l3.677,18.345c-3.319,0.627-6.742,0.862-10.226,0.665l1.069-19.03L382.646,434.584
			z"/>
		<path style="fill:#479C26;" d="M400.604,426.031l11.062,11.739c-1.885,2.335-3.996,4.446-6.302,6.323l-10.337-13.512
			L400.604,426.031z"/>
		<path style="fill:#479C26;" d="M420.458,418.427c-0.319,1.799-0.746,3.542-1.267,5.241l-9.084-4.233l1.638-4.188l8.959,1.587
			C420.638,417.362,420.552,417.895,420.458,418.427z"/>
		<g>
			<path style="fill:#FFB03A;" d="M416.911,416.161c-4.465,19.828-23.793,32.838-44.015,29.254
				c-20.222-3.583-33.889-22.44-31.269-42.595L416.911,416.161z"/>
			<path style="fill:#FF797A;" d="M415.195,415.857c-5.204,18.038-22.949,29.657-41.421,26.384
				c-18.465-3.272-31.123-20.278-29.813-39.006L415.195,415.857z"/>
			<path style="fill:#3B282E;" d="M375.842,423.672c-0.411,0.683-1.085,1.032-1.505,0.779c-0.421-0.253-0.428-1.012-0.017-1.695
				c0.411-0.683,1.085-1.032,1.505-0.779C376.246,422.23,376.253,422.988,375.842,423.672z"/>
			<path style="fill:#3B282E;" d="M400.883,424.359c0.299,0.739,0.173,1.487-0.282,1.672c-0.455,0.184-1.066-0.266-1.365-1.005
				c-0.299-0.739-0.173-1.488,0.282-1.672C399.973,423.17,400.584,423.62,400.883,424.359z"/>
			<path style="fill:#3B282E;" d="M388.16,435.913c0.025,0.797-0.353,1.455-0.843,1.471c-0.49,0.015-0.908-0.619-0.933-1.416
				c-0.025-0.797,0.353-1.455,0.843-1.47C387.718,434.482,388.136,435.116,388.16,435.913z"/>
			<path style="fill:#3B282E;" d="M389.275,418.356c0.093,0.792-0.227,1.48-0.715,1.537c-0.487,0.057-0.957-0.539-1.05-1.331
				c-0.093-0.792,0.227-1.48,0.715-1.537C388.712,416.969,389.182,417.565,389.275,418.356z"/>
			<path style="fill:#3B282E;" d="M356.976,427.428c-0.54,0.586-1.27,0.793-1.631,0.46c-0.361-0.332-0.216-1.077,0.324-1.664
				c0.54-0.586,1.271-0.793,1.632-0.46C357.661,426.096,357.516,426.841,356.976,427.428z"/>
			<path style="fill:#3B282E;" d="M349.075,411.83c-0.713,0.357-1.469,0.292-1.689-0.147c-0.22-0.439,0.18-1.084,0.892-1.441
				c0.713-0.357,1.469-0.292,1.689,0.147C350.187,410.827,349.788,411.473,349.075,411.83z"/>
			<path style="fill:#3B282E;" d="M364.445,415.014c-0.558,0.57-1.294,0.754-1.645,0.411c-0.351-0.343-0.183-1.083,0.375-1.653
				c0.558-0.57,1.294-0.754,1.645-0.411C365.17,413.704,365.003,414.444,364.445,415.014z"/>
			<path style="fill:#3B282E;" d="M372.006,436.476c-0.205,0.771-0.755,1.293-1.229,1.167c-0.474-0.126-0.693-0.853-0.488-1.623
				c0.205-0.771,0.755-1.293,1.229-1.167C371.992,434.979,372.21,435.706,372.006,436.476z"/>
		</g>
	</g>
	
		<ellipse transform="matrix(0.1593 -0.9872 0.9872 0.1593 63.0553 373.4285)" style="fill:#FFBB00;" cx="250.796" cy="149.69" rx="16.797" ry="16.796"/>
</g>
<g id="TEXTS">
	<text transform="matrix(1 0 0 1 619.8485 77.596)" style="fill:#BB3339; font-family:'Comfortaa-Bold'; font-size:24.0019px;">HAPPY</text>
	<text transform="matrix(1 0 0 1 454.1755 123.2398)" style="fill:#6CAD52; font-family:'GrandHotel-Regular'; font-size:52px;">Ferragosto</text>
</g>
</svg>
