<svg class="svg" width="1440" height="651" viewBox="0 0 1440 651" fill="none" xmlns="http://www.w3.org/2000/svg"
            style="width: 100%;top: 2278px;position: absolute;z-index: 1;">
            <mask id="mask0_5_93" style="mask-type:luminance" maskUnits="userSpaceOnUse" x="245" y="0" width="2045"
                height="701">
                <path d="M2289 0H245V701H2289V0Z" fill="white"></path>
            </mask>
            <g mask="url(#mask0_5_93)">
                <path
                    d="M-46.0302 696.446C-8.21347 638.227 180.143 649.663 207.745 625.522C214.204 619.873 212.844 612.148 207.121 603.71C187.294 574.472 284.784 548.259 408.885 549.256C486.892 549.883 566.295 549.964 624.849 548.711C670.425 547.735 701.224 535.324 736.239 522.045C815.301 492.06 919.245 481.635 1015.65 487.921C1089.22 492.719 1159.99 507.151 1221.67 528.33C1250.89 538.364 1278.32 549.946 1309.83 557.943C1358.21 570.223 1414.32 566.487 1466.79 566.777C1531.09 567.133 1595.41 566.855 1659.72 566.339C1824.67 565.014 1954.25 599.855 1927.89 638.718C1920.29 649.935 1918.48 660.202 1927.06 667.71C1963.75 699.797 2214.11 684.595 2264.37 761.979C2280.13 786.236 2252.43 808.616 2204.04 827.089H923.75C906.079 827.089 891.754 823.655 891.771 819.421L87.1378 827.089C50.7355 813.189 -57.8854 714.696 -46.0302 696.446Z"
                    fill="#A5B2FF"></path>
            </g>
            <mask id="mask1_5_93" style="mask-type:luminance" maskUnits="userSpaceOnUse" x="-218" y="18" width="2045"
                height="701">
                <path d="M1826 18H-218V719H1826V18Z" fill="white"></path>
            </mask>
            <g mask="url(#mask1_5_93)">
                <path
                    d="M-509.03 714.446C-471.213 656.227 -282.857 667.663 -255.255 643.522C-248.796 637.873 -250.156 630.148 -255.879 621.71C-275.706 592.472 -178.216 566.259 -54.1148 567.256C23.8924 567.883 103.295 567.964 161.849 566.711C207.425 565.735 238.224 553.324 273.239 540.045C352.301 510.06 456.245 499.635 552.653 505.921C626.218 510.719 696.993 525.151 758.67 546.33C787.888 556.364 815.324 567.946 846.829 575.943C895.206 588.223 951.323 584.487 1003.79 584.777C1068.09 585.133 1132.41 584.855 1196.72 584.339C1361.67 583.014 1491.25 617.855 1464.89 656.718C1457.29 667.935 1455.48 678.202 1464.06 685.71C1500.75 717.797 1751.11 702.595 1801.37 779.979C1817.13 804.236 1789.43 826.616 1741.04 845.089H460.75C443.079 845.089 428.754 841.655 428.771 837.421L-375.862 845.089C-412.265 831.189 -520.885 732.696 -509.03 714.446Z"
                    fill="#FFCDC4"></path>
            </g>
            <mask id="mask2_5_93" style="mask-type:luminance" maskUnits="userSpaceOnUse" x="0" y="398" width="490"
                height="333">
                <path d="M490 398H0V731H490V398Z" fill="white"></path>
            </mask>
            <g mask="url(#mask2_5_93)">
                <mask id="mask3_5_93" style="mask-type:luminance" maskUnits="userSpaceOnUse" x="-53" y="466" width="100"
                    height="234">
                    <path
                        d="M36.4697 499.065C28.488 517.807 21.8932 537.117 16.3412 556.649C10.8969 576.226 6.46278 596.032 3.26275 616.016C0.0209097 635.988 -2.1756 656.08 -3.35421 676.192C-3.42542 677.277 -3.57242 678.513 -3.78672 679.609C-6.44905 693.206 -19.4203 702.028 -32.7594 699.314C-46.0979 696.6 -54.7533 683.378 -52.0909 669.78L-52.0733 669.689C-47.8782 648.263 -42.6091 627.099 -36.2731 606.327C-29.9808 585.545 -22.4315 565.205 -13.8938 545.388C-5.24626 525.61 4.4185 506.35 15.4213 487.923C19.8372 480.499 24.4817 473.222 29.3432 466.092L46.3403 477.534C42.8384 484.606 39.5508 491.793 36.4697 499.065Z"
                        fill="white"></path>
                </mask>
                <g mask="url(#mask3_5_93)">
                    <path
                        d="M36.4697 499.065C28.488 517.807 21.8932 537.117 16.3412 556.649C10.8969 576.226 6.46278 596.032 3.26275 616.016C0.0209097 635.988 -2.1756 656.08 -3.35421 676.192C-3.42542 677.277 -3.57242 678.513 -3.78672 679.609C-6.44905 693.206 -19.4203 702.028 -32.7594 699.314C-46.0979 696.6 -54.7533 683.378 -52.0909 669.78L-52.0733 669.689C-47.8782 648.263 -42.6091 627.099 -36.2731 606.327C-29.9808 585.545 -22.4315 565.205 -13.8938 545.388C-5.24626 525.61 4.4185 506.35 15.4213 487.923C19.8372 480.499 24.4817 473.222 29.3432 466.092L46.3403 477.534C42.8384 484.606 39.5508 491.793 36.4697 499.065Z"
                        fill="#FF9E2F"></path>
                    <path
                        d="M36.0895 498.19C32.5745 497.967 23.633 496.651 14.3694 489.302C13.622 488.709 13.4887 487.612 14.0695 486.851C14.651 486.089 15.727 485.953 16.4738 486.545C27.0963 494.972 37.4164 494.741 37.5183 494.738C38.463 494.699 39.2542 495.461 39.2862 496.423C39.3182 497.386 38.5826 498.193 37.6379 498.228C37.5418 498.231 36.9963 498.247 36.0895 498.19Z"
                        fill="#FFB03A"></path>
                    <path
                        d="M26.3927 521.757C22.3662 521.502 12.4342 519.89 2.25072 510.68C1.54251 510.04 1.47783 508.936 2.10633 508.214C2.73288 507.494 3.81545 507.426 4.52432 508.067C16.3523 518.764 27.9515 518.306 28.0678 518.302C29.0047 518.252 29.8168 518.993 29.8665 519.954C29.9161 520.916 29.1955 521.736 28.2527 521.789C28.141 521.795 27.4825 521.825 26.3927 521.757Z"
                        fill="#FFB03A"></path>
                    <path
                        d="M14.7399 547.426C8.76513 547.049 -0.582763 544.72 -10.1456 535.472C-10.8323 534.808 -10.8597 533.703 -10.209 533.004C-9.55695 532.304 -8.47372 532.275 -7.78642 532.938C6.46474 546.72 19.8894 543.785 20.4559 543.654C21.3738 543.438 22.295 544.024 22.5093 544.961C22.7223 545.898 22.1552 546.834 21.236 547.055C20.9883 547.114 18.5494 547.667 14.7399 547.426Z"
                        fill="#FFB03A"></path>
                    <path
                        d="M5.78591 573.339C-0.991122 572.911 -11.4673 570.525 -21.1177 561.193C-21.8044 560.529 -21.8318 559.424 -21.1811 558.724C-20.5291 558.025 -19.4458 557.995 -18.7585 558.659C-4.38715 572.557 12.2617 569.66 12.4297 569.63C13.3607 569.457 14.2531 570.086 14.4217 571.035C14.5915 571.983 13.9741 572.893 13.0431 573.065C12.7563 573.12 9.97835 573.605 5.78591 573.339Z"
                        fill="#FFB03A"></path>
                    <path
                        d="M-2.23379 602.022C-9.7125 601.549 -21.2798 598.915 -31.9376 588.609C-32.6242 587.945 -32.6517 586.839 -32.001 586.139C-31.3483 585.439 -30.2657 585.412 -29.5784 586.074C-13.6351 601.493 4.97182 598.319 5.15867 598.285C6.09033 598.112 6.97951 598.746 7.14677 599.693C7.31467 600.642 6.69858 601.549 5.76889 601.721C5.45267 601.78 2.3905 602.314 -2.23379 602.022Z"
                        fill="#FFB03A"></path>
                    <path
                        d="M-7.75898 630.261C-16.0733 629.736 -28.9361 626.806 -40.7928 615.34C-41.4795 614.676 -41.5069 613.571 -40.8562 612.871C-40.2042 612.171 -39.1209 612.144 -38.4336 612.806C-20.5565 630.096 0.312299 626.528 0.519406 626.491C1.45106 626.319 2.3409 626.951 2.5088 627.9C2.67606 628.848 2.05996 629.755 1.13027 629.927C0.779431 629.992 -2.62247 630.586 -7.75898 630.261Z"
                        fill="#FFB03A"></path>
                </g>
                <mask id="mask4_5_93" style="mask-type:luminance" maskUnits="userSpaceOnUse" x="-53" y="466" width="100"
                    height="234">
                    <path
                        d="M36.4697 499.065C28.488 517.807 21.8932 537.117 16.3412 556.649C10.8969 576.226 6.46278 596.032 3.26275 616.016C0.0209097 635.988 -2.1756 656.08 -3.35421 676.192C-3.42542 677.277 -3.57242 678.513 -3.78672 679.609C-6.44905 693.206 -19.4203 702.028 -32.7594 699.314C-46.0979 696.6 -54.7533 683.378 -52.0909 669.78L-52.0733 669.689C-47.8782 648.263 -42.6091 627.099 -36.2731 606.327C-29.9808 585.545 -22.4315 565.205 -13.8938 545.388C-5.24626 525.61 4.4185 506.35 15.4213 487.923C19.8372 480.499 24.4817 473.222 29.3432 466.092L46.3403 477.534C42.8384 484.606 39.5508 491.793 36.4697 499.065Z"
                        fill="white"></path>
                </mask>
                <g mask="url(#mask4_5_93)">
                    <path
                        d="M28.239 507.487C28.205 507.485 28.171 507.482 28.1371 507.478C26.9382 507.356 26.0333 506.432 26.1183 505.419C26.1555 504.988 26.3685 504.587 26.72 504.29C27.1714 503.909 27.811 503.73 28.4591 503.795C29.6574 503.918 30.5622 504.842 30.4773 505.855C30.4407 506.286 30.2271 506.686 29.8756 506.983C29.4476 507.345 28.8551 507.526 28.239 507.487ZM26.8003 505.479C26.7468 506.114 27.3766 506.699 28.2043 506.783C28.6852 506.838 29.1269 506.709 29.4378 506.445C29.5855 506.32 29.7678 506.106 29.7939 505.795C29.8475 505.161 29.2177 504.575 28.3899 504.49C27.9221 504.441 27.4674 504.565 27.1564 504.828C27.0087 504.954 26.8271 505.167 26.8003 505.479Z"
                        fill="#FFB03A"></path>
                </g>
                <mask id="mask5_5_93" style="mask-type:luminance" maskUnits="userSpaceOnUse" x="-53" y="466" width="100"
                    height="234">
                    <path
                        d="M36.4697 499.065C28.488 517.807 21.8932 537.117 16.3412 556.649C10.8969 576.226 6.46278 596.032 3.26275 616.016C0.0209097 635.988 -2.1756 656.08 -3.35421 676.192C-3.42542 677.277 -3.57242 678.513 -3.78672 679.609C-6.44905 693.206 -19.4203 702.028 -32.7594 699.314C-46.0979 696.6 -54.7533 683.378 -52.0909 669.78L-52.0733 669.689C-47.8782 648.263 -42.6091 627.099 -36.2731 606.327C-29.9808 585.545 -22.4315 565.205 -13.8938 545.388C-5.24626 525.61 4.4185 506.35 15.4213 487.923C19.8372 480.499 24.4817 473.222 29.3432 466.092L46.3403 477.534C42.8384 484.606 39.5508 491.793 36.4697 499.065Z"
                        fill="white"></path>
                </mask>
                <g mask="url(#mask5_5_93)">
                    <path
                        d="M-2.14622 620.389C-2.18019 620.387 -2.21417 620.384 -2.24814 620.38C-3.44701 620.257 -4.35187 619.333 -4.26694 618.321V618.32C-4.23035 617.89 -4.01671 617.489 -3.66587 617.193C-3.21377 616.811 -2.56697 616.631 -1.9267 616.697C-0.727832 616.82 0.177034 617.744 0.0921011 618.756C0.0555144 619.187 -0.158125 619.588 -0.508965 619.885C-0.936899 620.247 -1.52882 620.428 -2.14622 620.389ZM-3.58421 618.381C-3.63778 619.015 -3.00797 619.6 -2.18019 619.685C-1.70326 619.745 -1.25769 619.61 -0.946045 619.347C-0.799045 619.223 -0.616765 619.008 -0.590632 618.696C-0.537059 618.063 -1.16687 617.478 -1.99465 617.393C-2.47485 617.338 -2.91715 617.468 -3.22879 617.731C-3.37579 617.855 -3.55807 618.07 -3.58421 618.381Z"
                        fill="#FFB03A"></path>
                </g>
                <path
                    d="M31.0483 476.014L80.9983 499.629L92.3983 493.501L87.3493 503.971L118.174 519.278L128.235 514.187L123.774 522.058L145.661 532.927C145.661 532.928 130.462 436.811 31.0483 476.014Z"
                    fill="#FF797A"></path>
                <path
                    d="M142.729 530.629C130.705 494.947 101.935 482.55 79.9177 478.433C56.0155 473.965 34.6822 478.008 34.4698 478.049L34.3411 477.363C34.5541 477.321 55.9985 473.255 80.0209 477.743C94.144 480.381 106.387 485.414 116.41 492.702C128.946 501.818 138.019 514.502 143.377 530.401L142.729 530.629Z"
                    fill="#FDF3EA"></path>
                <path
                    d="M105.662 501.709C105.507 501.699 105.353 501.668 105.202 501.616C104.72 501.45 104.326 501.072 104.062 500.525C103.561 499.482 103.569 497.953 104.084 496.433C104.898 494.027 106.666 492.537 108.105 493.032C108.588 493.199 108.983 493.576 109.246 494.124C109.747 495.167 109.739 496.696 109.224 498.215C108.495 500.37 107 501.793 105.662 501.709ZM107.605 493.637C106.597 493.573 105.34 494.863 104.731 496.661C104.282 497.988 104.261 499.351 104.677 500.217C104.861 500.599 105.112 500.848 105.422 500.955C106.469 501.317 107.909 499.955 108.577 497.987C109.026 496.66 109.047 495.297 108.63 494.431C108.446 494.049 108.196 493.8 107.886 493.693C107.795 493.661 107.701 493.643 107.605 493.637Z"
                    fill="#FDF3EA"></path>
                <path
                    d="M88.2882 476.417C88.1849 476.41 88.0824 476.392 87.9818 476.36C87.6322 476.247 87.352 475.988 87.1703 475.61C86.8613 474.966 86.8724 474.043 87.2004 473.141C87.7348 471.67 88.9082 470.76 89.8699 471.07C90.2194 471.182 90.4997 471.442 90.6813 471.819C90.9904 472.463 90.9793 473.386 90.6506 474.288C90.1711 475.606 89.1806 476.473 88.2882 476.417ZM87.8426 473.383C87.5832 474.098 87.561 474.834 87.7864 475.302C87.8844 475.506 88.0203 475.638 88.1882 475.692C88.6932 475.861 89.5792 475.224 90.0078 474.044C90.2678 473.329 90.29 472.594 90.0652 472.125C89.9666 471.92 89.8314 471.789 89.6628 471.735C89.1532 471.568 88.2718 472.206 87.8426 473.383Z"
                    fill="#FDF3EA"></path>
                <path
                    d="M105.794 486.989C105.742 486.986 105.69 486.97 105.642 486.942C105.479 486.844 105.425 486.63 105.52 486.463C107.648 482.76 108.086 478.852 108.09 478.813C108.11 478.621 108.289 478.491 108.468 478.503C108.656 478.524 108.791 478.697 108.771 478.888C108.753 479.054 108.317 482.978 106.111 486.816C106.043 486.935 105.919 486.997 105.794 486.989Z"
                    fill="#FDF3EA"></path>
                <path
                    d="M102.113 485.215C102.061 485.212 102.01 485.197 101.961 485.168C101.798 485.071 101.744 484.856 101.838 484.69C103.602 481.621 103.528 480.803 103.506 480.696C103.425 480.561 103.442 480.384 103.555 480.267C103.689 480.13 103.906 480.13 104.04 480.265C104.502 480.734 103.931 482.431 102.43 485.043C102.363 485.161 102.238 485.223 102.113 485.215Z"
                    fill="#FDF3EA"></path>
                <path
                    d="M70.4032 484.895C70.2301 484.884 70.0896 484.741 70.0831 484.56C70.0765 484.394 69.9472 480.446 71.5792 476.321C71.6504 476.142 71.851 476.057 72.0254 476.128C72.2005 476.2 72.2854 476.404 72.2149 476.583C70.6364 480.57 70.7658 484.494 70.7671 484.533C70.7749 484.727 70.6273 484.888 70.4378 484.896C70.4267 484.896 70.415 484.896 70.4032 484.895Z"
                    fill="#FDF3EA"></path>
                <path
                    d="M74.7479 482.563C74.6839 482.559 74.6211 482.537 74.5656 482.495C74.0403 482.1 74.3631 480.336 75.4737 477.528C75.5456 477.35 75.7449 477.265 75.92 477.335C76.0951 477.408 76.18 477.611 76.1094 477.79C74.8041 481.089 74.9948 481.887 75.0314 481.99C75.1314 482.11 75.1405 482.29 75.0445 482.421C74.9733 482.52 74.8596 482.569 74.7479 482.563Z"
                    fill="#FDF3EA"></path>
                <path
                    d="M30.2971 475.446L47.4346 520.283L57.3614 521.927L48.9144 526.983L59.1071 555.199L67.7024 556.886L60.9593 560.325L68.1969 580.36C68.1969 580.36 109.428 500.397 30.2971 475.446Z"
                    fill="#6169D8"></path>
                <path
                    d="M68.2407 577.256L67.5952 577.022C79.1363 543.858 68.6451 518.941 57.8115 503.878C46.0561 487.533 31.3711 478.927 31.2241 478.842L31.5625 478.234C31.7102 478.32 46.5062 486.987 58.3492 503.444C69.2893 518.647 79.8863 543.793 68.2407 577.256Z"
                    fill="#FDF3EA"></path>
                <path
                    d="M62.1666 535.803C62.0484 535.795 61.934 535.779 61.8243 535.754C61.3754 535.651 61.0338 535.399 60.8371 535.026C60.2576 533.927 61.1416 532.06 62.8487 530.777C63.9764 529.931 65.1811 529.546 66.0657 529.751C66.5146 529.855 66.8563 530.106 67.0523 530.479C67.6318 531.578 66.7478 533.445 65.04 534.728C64.0535 535.47 63.0081 535.856 62.1666 535.803ZM63.2564 531.339C61.7211 532.493 61.0782 534.007 61.4408 534.696C61.542 534.888 61.7217 535.014 61.9752 535.073C62.6481 535.227 63.6948 534.872 64.6343 534.166C66.1696 533.012 66.8125 531.499 66.4499 530.81C66.3493 530.618 66.1696 530.491 65.9161 530.433C65.2491 530.279 64.1965 530.633 63.2564 531.339Z"
                    fill="#FDF3EA"></path>
                <path
                    d="M64.601 506.913C64.535 506.909 64.471 506.9 64.4089 506.886C64.0992 506.816 63.8562 506.623 63.7249 506.343C63.3753 505.599 63.8699 504.397 64.8747 503.549L64.8754 503.548C65.5222 503.002 66.2278 502.744 66.7727 502.868C67.0824 502.938 67.3254 503.13 67.4574 503.411C67.8062 504.156 67.3117 505.357 66.3062 506.206C65.7326 506.69 65.1099 506.945 64.601 506.913ZM65.3125 504.086C64.5383 504.74 64.1633 505.658 64.3429 506.042C64.3691 506.096 64.4187 506.173 64.5566 506.204C64.8016 506.258 65.2968 506.153 65.8698 505.668C66.6433 505.015 67.0196 504.096 66.8393 503.712C66.8132 503.658 66.7635 503.581 66.625 503.55C66.3761 503.495 65.8841 503.604 65.3125 504.086Z"
                    fill="#FDF3EA"></path>
                <path
                    d="M68.8398 524.472C68.7215 524.465 68.6098 524.394 68.5536 524.278C68.4694 524.105 68.5393 523.895 68.7091 523.81C71.8935 522.212 74.1906 519.538 74.2128 519.511C74.3369 519.365 74.5538 519.351 74.6963 519.476C74.8387 519.602 74.855 519.823 74.7309 519.969C74.6342 520.082 72.3247 522.774 69.0116 524.437C68.9574 524.465 68.8979 524.475 68.8398 524.472Z"
                    fill="#FDF3EA"></path>
                <path
                    d="M67.5952 521.143C67.477 521.135 67.3652 521.065 67.3091 520.948C67.2248 520.776 67.2947 520.566 67.4646 520.481C70.1406 519.137 70.4954 518.491 70.5333 518.405C70.5555 518.243 70.6888 518.114 70.856 518.106C71.0402 518.098 71.2055 518.245 71.2147 518.438C71.2304 518.781 70.8044 519.583 67.767 521.108C67.7122 521.135 67.6534 521.146 67.5952 521.143Z"
                    fill="#FDF3EA"></path>
                <path
                    d="M49.0536 503.62C48.9948 503.616 48.9373 503.598 48.885 503.562C48.7282 503.456 48.6851 503.239 48.7897 503.078C48.8726 502.951 50.8575 499.937 53.9765 497.75C54.1326 497.641 54.3456 497.68 54.4534 497.839C54.5605 497.999 54.5207 498.216 54.3652 498.326C51.3586 500.434 49.3803 503.436 49.36 503.466C49.2895 503.573 49.1712 503.628 49.0536 503.62Z"
                    fill="#FDF3EA"></path>
                <path
                    d="M52.8345 504.249C52.6809 504.239 52.547 504.124 52.5189 503.963C52.417 503.391 53.5263 502.258 55.6438 500.773C55.7999 500.665 56.0129 500.704 56.1207 500.862C56.2279 501.022 56.188 501.239 56.0325 501.349C53.5067 503.12 53.2258 503.815 53.199 503.907C53.1958 504.07 53.0801 504.213 52.9174 504.244C52.8887 504.249 52.8612 504.25 52.8345 504.249Z"
                    fill="#FDF3EA"></path>
                <path
                    d="M35.6583 480.828L-12.5571 466.368L-15.4768 456.557L-19.2681 465.765L-48.0572 459.223L-50.8418 450.764L-53.2878 458.035L-73.73 453.389C-73.73 453.388 0.86827 404.201 35.6583 480.828Z"
                    fill="#6169D8"></path>
                <path
                    d="M29.8913 477.229C29.7894 477.092 19.4674 463.401 2.01095 453.7C-14.0748 444.76 -39.6992 437.477 -70.4058 453.551L-70.7194 452.93C-39.7344 436.71 -13.8748 444.069 2.36114 453.099C19.9384 462.874 30.3343 476.669 30.4368 476.806L29.8913 477.229Z"
                    fill="#FDF3EA"></path>
                <path
                    d="M-1.22564 448.657C-1.33214 448.65 -1.43602 448.629 -1.53402 448.594C-1.8339 448.486 -2.05407 448.258 -2.17167 447.932C-2.384 447.345 -2.23178 446.505 -1.76464 445.688C-1.03814 444.417 0.130678 443.68 0.955185 443.977C1.25506 444.085 1.47524 444.314 1.59284 444.639C1.80517 445.227 1.65294 446.066 1.18581 446.884C0.546198 448.003 -0.437069 448.707 -1.22564 448.657ZM0.601078 444.611C0.140478 444.581 -0.641562 445.111 -1.17272 446.039C-1.52683 446.659 -1.6673 447.308 -1.52879 447.69C-1.48306 447.817 -1.40988 447.897 -1.306 447.935C-0.883295 448.089 0.0111181 447.551 0.593238 446.532C0.947998 445.911 1.08781 445.263 0.949958 444.88C0.904225 444.753 0.831051 444.673 0.727825 444.635C0.688625 444.622 0.646158 444.614 0.601078 444.611Z"
                    fill="#FDF3EA"></path>
                <path
                    d="M3.74297 462.795C3.65542 462.79 3.56918 462.75 3.50646 462.677C3.38168 462.532 3.39605 462.312 3.53782 462.184C3.56461 462.16 6.21845 459.762 7.86942 456.444C7.95436 456.271 8.16081 456.202 8.33002 456.29C8.49858 456.378 8.56588 456.587 8.48029 456.76C6.7679 460.202 4.1023 462.609 3.98993 462.709C3.91937 462.773 3.83052 462.801 3.74297 462.795Z"
                    fill="#FDF3EA"></path>
                <path
                    d="M2.62838 459.059C2.44218 459.047 2.29844 458.885 2.30694 458.694C2.31478 458.525 2.43891 458.389 2.59702 458.365C2.68195 458.325 3.32091 457.948 4.70663 455.161C4.79156 454.988 4.99867 454.92 5.16723 455.008C5.33579 455.095 5.40308 455.305 5.3175 455.476C4.15587 457.813 3.20266 459.086 2.63295 459.059C2.63164 459.059 2.63034 459.059 2.62838 459.059Z"
                    fill="#FDF3EA"></path>
                <path
                    d="M28.1143 480.31L76.0944 450.045L79.3095 438.828L83.0949 446.699L113.197 428.296L116.247 418.515L118.666 424.953L140.039 411.886C140.039 411.886 65.709 387.815 28.1143 480.31Z"
                    fill="#6169D8"></path>
                <path
                    d="M31.7017 478.498L31.1163 478.134C31.226 477.951 42.2765 459.655 60.726 442.538C77.7741 426.722 104.798 408.699 136.783 412.678L136.701 413.371C104.987 409.427 78.1399 427.331 61.2003 443.043C42.8188 460.092 31.8108 478.316 31.7017 478.498Z"
                    fill="#FDF3EA"></path>
                <path
                    d="M91.1217 432.078C91.0381 432.073 90.9544 432.063 90.8702 432.05C89.9601 431.905 89.0879 431.312 88.4783 430.424C87.3846 428.832 87.482 426.772 88.6965 425.832C89.2009 425.441 89.8509 425.285 90.5245 425.393C91.4353 425.538 92.3068 426.131 92.9164 427.02C94.0094 428.611 93.9121 430.671 92.6975 431.611C92.2572 431.952 91.7051 432.115 91.1217 432.078ZM90.2253 426.061C89.8052 426.034 89.423 426.145 89.1107 426.387C88.1863 427.104 88.1542 428.734 89.0389 430.022C89.5432 430.756 90.2495 431.243 90.9766 431.359C91.4712 431.439 91.9246 431.332 92.284 431.054C93.2084 430.337 93.2404 428.707 92.3565 427.419C91.8528 426.685 91.1465 426.198 90.4194 426.082C90.3534 426.072 90.2887 426.065 90.2253 426.061Z"
                    fill="#FDF3EA"></path>
                <path
                    d="M63.6876 436.442C63.061 436.402 62.4077 436.062 61.9576 435.478C61.5597 434.963 61.382 434.341 61.4689 433.771C61.5381 433.318 61.7727 432.933 62.1287 432.687C62.9421 432.126 64.1952 432.434 64.9224 433.374C65.3203 433.889 65.498 434.512 65.4111 435.082C65.3418 435.534 65.1073 435.919 64.7512 436.165C64.4415 436.378 64.0691 436.466 63.6876 436.442ZM63.1486 433.106C62.914 433.092 62.6926 433.142 62.5129 433.266C62.2601 433.441 62.1738 433.695 62.1457 433.878C62.0869 434.257 62.2156 434.683 62.4959 435.046C62.9957 435.694 63.8529 435.939 64.3671 435.586C64.6192 435.412 64.7055 435.157 64.7336 434.974C64.7924 434.595 64.6637 434.17 64.3834 433.806C64.058 433.386 63.5824 433.134 63.1486 433.106Z"
                    fill="#FDF3EA"></path>
                <path
                    d="M83.3078 426.105C83.1772 426.097 83.057 426.012 83.008 425.879C81.9064 422.873 79.5969 421.092 79.5734 421.075C79.4225 420.96 79.3905 420.741 79.5035 420.586C79.6165 420.432 79.8301 420.399 79.9824 420.514C80.0836 420.591 82.4742 422.428 83.6502 425.634C83.7162 425.815 83.626 426.017 83.449 426.084C83.4026 426.101 83.3542 426.108 83.3078 426.105Z"
                    fill="#FDF3EA"></path>
                <path
                    d="M79.7491 428.322C79.6184 428.314 79.4982 428.229 79.4492 428.096C78.5842 425.736 78.0217 425.425 77.9387 425.39C77.7845 425.401 77.6349 425.301 77.5885 425.142C77.5343 424.956 77.6369 424.762 77.8185 424.707C78.1922 424.592 78.9899 424.848 80.0921 427.851C80.1581 428.032 80.0686 428.233 79.8909 428.301C79.8438 428.319 79.7955 428.326 79.7491 428.322Z"
                    fill="#FDF3EA"></path>
                <path
                    d="M59.1436 453.026C59.1005 453.023 59.0567 453.012 59.0149 452.991C58.8986 452.933 56.1278 451.54 54.3841 448.68C54.2841 448.516 54.3331 448.301 54.4938 448.199C54.6539 448.097 54.8649 448.147 54.9656 448.312C56.6015 450.994 59.288 452.35 59.3148 452.363C59.4847 452.448 59.5559 452.656 59.4729 452.83C59.4108 452.961 59.2782 453.034 59.1436 453.026Z"
                    fill="#FDF3EA"></path>
                <path
                    d="M60.2818 448.764C59.8604 448.737 59.045 448.29 57.6998 446.083C57.5998 445.919 57.6495 445.704 57.8095 445.602C57.9696 445.501 58.1813 445.551 58.2813 445.715C59.6029 447.883 60.2373 448.051 60.317 448.064C60.4745 448.03 60.6404 448.11 60.7071 448.267C60.7816 448.445 60.7012 448.65 60.5268 448.726C60.4686 448.751 60.3876 448.771 60.2818 448.764Z"
                    fill="#FDF3EA"></path>
                <path
                    d="M31.997 477.614L9.51512 431.921L12.9941 423.197L5.65457 425.913L-8.7671 397.607L-5.9336 389.861L-11.387 392.464L-21.6273 372.365C-21.6273 372.365 51.6943 399.437 31.997 477.614Z"
                    fill="#FF797A"></path>
                <path
                    d="M30.0657 474.507C30.0762 474.334 31.0359 456.912 25.384 436.061C20.1743 416.839 8.11766 390.683 -19.7359 375.232L-19.4092 374.619C8.66385 390.191 20.8067 416.537 26.0504 435.896C31.7278 456.856 30.7602 474.376 30.7498 474.55L30.0657 474.507Z"
                    fill="#FDF3EA"></path>
                <path
                    d="M8.22807 412.957C6.90181 412.873 5.73495 412.226 5.33773 411.262C5.13127 410.761 5.15937 410.219 5.41613 409.736C5.79571 409.024 6.60715 408.506 7.64399 408.316C9.39166 407.995 11.1655 408.708 11.6738 409.944C11.8802 410.445 11.8521 410.987 11.5947 411.47C11.2158 412.182 10.4037 412.699 9.36683 412.89C8.98463 412.96 8.60047 412.981 8.22807 412.957ZM8.71807 408.948C8.40447 408.928 8.08238 408.946 7.76617 409.004C6.94689 409.154 6.29421 409.552 6.01915 410.069C5.85843 410.371 5.8421 410.681 5.9695 410.992C6.34582 411.905 7.84783 412.46 9.24597 412.202C10.0652 412.052 10.7186 411.654 10.993 411.137C11.1537 410.835 11.17 410.525 11.0426 410.215C10.7512 409.508 9.78758 409.016 8.71807 408.948Z"
                    fill="#FDF3EA"></path>
                <path
                    d="M27.6869 430.847C26.8755 430.796 26.1568 430.325 25.9138 429.62C25.7766 429.221 25.8132 428.797 26.0183 428.425C26.2666 427.975 26.7344 427.645 27.3021 427.522C28.3559 427.291 29.4209 427.809 29.7279 428.699C29.8658 429.098 29.8285 429.522 29.6234 429.894C29.3751 430.344 28.9073 430.674 28.3396 430.798C28.1201 430.845 27.9006 430.86 27.6869 430.847ZM27.8973 428.17C27.7483 428.161 27.5955 428.171 27.4452 428.204C27.0695 428.286 26.767 428.49 26.6155 428.766C26.507 428.963 26.4881 429.178 26.5599 429.388C26.7481 429.934 27.5001 430.264 28.1959 430.113C28.5715 430.031 28.8747 429.826 29.0263 429.551C29.1347 429.353 29.1537 429.138 29.0818 428.928C28.9335 428.502 28.4402 428.205 27.8973 428.17Z"
                    fill="#FDF3EA"></path>
                <path
                    d="M16.805 413.228C16.6855 413.221 16.5724 413.149 16.5176 413.03C16.4359 412.856 16.5078 412.647 16.6789 412.565C19.372 411.252 22.2989 411.465 22.4237 411.476C22.6125 411.49 22.753 411.658 22.7386 411.851C22.7242 412.044 22.5335 412.174 22.3701 412.172C22.3394 412.168 19.4948 411.966 16.9742 413.195C16.9194 413.221 16.8619 413.232 16.805 413.228Z"
                    fill="#FDF3EA"></path>
                <path
                    d="M18.4874 416.6C18.3678 416.593 18.2548 416.521 18.1993 416.402C18.1176 416.228 18.1895 416.019 18.3606 415.936C20.957 414.671 21.6724 415.042 21.8599 415.26C21.9847 415.405 21.9697 415.626 21.8272 415.753C21.7005 415.867 21.511 415.867 21.3856 415.761C21.3137 415.734 20.7139 415.564 18.6559 416.567C18.6017 416.593 18.5442 416.603 18.4874 416.6Z"
                    fill="#FDF3EA"></path>
                <path
                    d="M23.844 443.715C22.638 443.638 21.7997 443.442 21.7344 443.426C21.5502 443.382 21.4358 443.194 21.4789 443.006C21.5227 442.819 21.703 442.7 21.8912 442.747C21.9206 442.753 24.8456 443.437 27.6366 442.703C27.8209 442.655 28.0077 442.769 28.0541 442.954C28.1011 443.141 27.9907 443.331 27.8078 443.38C26.3868 443.753 24.9579 443.786 23.844 443.715Z"
                    fill="#FDF3EA"></path>
                <path
                    d="M23.7833 440.31C23.1692 440.272 22.9405 440.085 22.8562 439.963C22.7471 439.805 22.7844 439.587 22.9392 439.476C23.0803 439.376 23.2672 439.398 23.3835 439.52C23.4455 439.557 24.0375 439.843 26.3561 439.235C26.5397 439.186 26.7266 439.299 26.7736 439.486C26.8207 439.672 26.7102 439.863 26.5273 439.911C25.1899 440.262 24.3321 440.345 23.7833 440.31Z"
                    fill="#FDF3EA"></path>
                <path
                    d="M-46.987 538.535L-12.9739 510.978L-15.2586 503.288L-7.48063 507.638L14.1486 490.722L12.4088 483.973L18.0778 487.648L35.8595 477.363C35.8609 477.364 -54.4938 473.204 -46.987 538.535Z"
                    fill="#FF797A"></path>
                <path
                    d="M-44.2712 536.75L-44.9487 536.641C-44.9271 536.505 -42.7097 522.902 -32.321 508.781C-22.7373 495.754 -4.04151 479.594 30.6028 476.585L30.661 477.281C-3.71222 480.266 -22.2525 496.272 -31.7526 509.173C-42.0505 523.158 -44.2503 536.617 -44.2712 536.75Z"
                    fill="#FDF3EA"></path>
            </g>
            <mask id="mask6_5_93" style="mask-type:luminance" maskUnits="userSpaceOnUse" x="560" y="301" width="880"
                height="350">
                <path d="M1440 301H560V651H1440V301Z" fill="white"></path>
            </mask>
            <g mask="url(#mask6_5_93)">
                <path
                    d="M1397.7 664.007C1400.92 665.564 1386.93 675.044 1377.04 681.317C1394.4 682.363 1422.99 676.82 1422.99 676.82C1422.99 676.82 1446.59 683.399 1471.78 676.668C1465.13 669.438 1456.39 659.043 1460.5 658.57C1464.28 658.143 1478.35 663.776 1488.85 668.483C1500.69 658.708 1515.12 646.08 1514.99 629.255C1495.84 627.927 1455.22 620.386 1455.52 616.478C1455.8 612.753 1485.94 609.56 1505.12 607.902C1503.22 602.6 1500.29 597.68 1496.26 593.423C1488.45 585.199 1476.61 576.514 1464.32 568.603C1450.21 573.824 1432.74 579.424 1429.93 576.23C1427.1 573.024 1438.46 565.142 1448.71 559.04C1430.08 548.132 1414.06 540.358 1414.06 540.358C1414.06 540.358 1396.95 549.743 1377.56 561.378C1384.09 572.172 1394.16 590.351 1388.47 591.059C1383.53 591.67 1367.48 582.383 1355.64 575.01C1339.39 585.55 1325.52 595.804 1323.25 601.329C1321.74 605.053 1322.73 611.75 1325.41 619.736C1346.23 621.231 1379.84 624.136 1378.91 627.231C1377.92 630.55 1348.61 634.931 1332.71 636.87C1338.92 649.137 1347.23 661.716 1355.43 670.223C1368.89 667.353 1394.16 662.299 1397.7 664.007Z"
                    fill="#FF797A"></path>
                <path d="M1468.78 586.013C1468.78 586.013 1428.33 597.4 1415.52 607.704" stroke="#FCF4E9"
                    stroke-width="0.6635" stroke-miterlimit="10" stroke-linecap="round"></path>
                <path d="M1356.72 601.933C1356.72 601.933 1397.92 612.627 1416.55 622.42" stroke="#FCF4E9"
                    stroke-width="0.6635" stroke-miterlimit="10" stroke-linecap="round"></path>
                <path d="M1483.86 645.496C1483.86 645.496 1447.22 635.258 1419 642.105" stroke="#FCF4E9"
                    stroke-width="0.6635" stroke-miterlimit="10" stroke-linecap="round"></path>
                <path d="M1362.37 651.815L1417.19 634.423" stroke="#FCF4E9" stroke-width="0.6635" stroke-miterlimit="10"
                    stroke-linecap="round"></path>
                <path
                    d="M1437.99 607.711C1438.76 609.435 1443.5 610.176 1448.59 609.367C1453.68 608.558 1457.19 606.506 1456.42 604.782C1455.65 603.059 1450.9 602.318 1445.81 603.127C1440.72 603.935 1437.22 605.988 1437.99 607.711Z"
                    stroke="#FCF4E9" stroke-width="0.6635" stroke-miterlimit="10" stroke-linecap="round"></path>
                <mask id="mask7_5_93" style="mask-type:luminance" maskUnits="userSpaceOnUse" x="1322" y="540"
                    width="187" height="142">
                    <path
                        d="M1397.72 664.052C1400.94 665.609 1386.95 675.089 1377.06 681.362C1394.42 682.408 1423.01 676.864 1423.01 676.864C1423.01 676.864 1446.62 683.444 1471.8 676.713C1465.15 669.483 1456.41 659.087 1460.53 658.615C1464.3 658.188 1478.37 663.82 1488.87 668.528C1500.71 658.753 1508.16 641.469 1508.03 624.643C1488.88 623.315 1455.24 620.43 1455.54 616.523C1455.83 612.798 1485.96 609.605 1505.14 607.947C1503.24 602.645 1500.32 597.724 1496.28 593.468C1488.47 585.244 1476.63 576.559 1464.34 568.648C1450.24 573.868 1432.76 579.468 1429.95 576.275C1427.12 573.069 1438.48 565.187 1448.73 559.084C1430.11 548.177 1414.08 540.402 1414.08 540.402C1414.08 540.402 1396.97 549.787 1377.58 561.422C1384.11 572.216 1394.18 590.395 1388.49 591.103C1383.56 591.714 1367.5 582.427 1355.67 575.054C1339.41 585.594 1325.54 595.848 1323.27 601.374C1321.76 605.097 1322.75 611.795 1325.43 619.78C1346.25 621.275 1379.86 624.18 1378.93 627.275C1377.94 630.594 1348.64 634.975 1332.73 636.914C1338.94 649.181 1347.25 661.76 1355.45 670.268C1368.91 667.398 1394.18 662.344 1397.72 664.052Z"
                        fill="white"></path>
                </mask>
                <g mask="url(#mask7_5_93)">
                    <path d="M1414.36 512.158C1414.36 512.158 1408.8 623.027 1428.89 706.361" stroke="#FCF4E9"
                        stroke-width="0.6635" stroke-miterlimit="10" stroke-linecap="round"></path>
                </g>
                <path
                    d="M1271.19 560.693C1271.19 560.693 1279.86 582.13 1297.11 604.331C1297.11 604.331 1252.54 589.36 1271.19 560.693Z"
                    fill="#6169D8"></path>
                <path
                    d="M1309.61 618.46C1309.61 618.46 1288.87 600.553 1245.89 593.09C1245.89 593.09 1267.7 616.181 1309.61 618.46Z"
                    fill="#6169D8"></path>
                <path
                    d="M1319.24 629.124C1319.24 629.124 1284.03 618.513 1236.74 624.683C1236.74 624.683 1277.46 639.885 1319.24 629.124Z"
                    fill="#6169D8"></path>
                <path
                    d="M1339.59 645.642C1339.59 645.642 1304.38 635.032 1257.09 641.201C1257.09 641.201 1297.81 656.403 1339.59 645.642Z"
                    fill="#6169D8"></path>
                <path
                    d="M1353.5 653.976C1353.5 653.976 1314.67 649.806 1272.31 663.776C1272.31 663.776 1318.61 671.407 1353.5 653.976Z"
                    fill="#6169D8"></path>
                <path
                    d="M1300.35 607.823C1300.35 607.823 1293.71 591.506 1301.4 571.237C1301.4 571.237 1317.76 590.789 1300.35 607.823Z"
                    fill="#6169D8"></path>
                <path
                    d="M1312.32 621.925C1312.32 621.925 1312.34 607.655 1327.54 582.731C1327.54 582.731 1340.72 608.104 1312.32 621.925Z"
                    fill="#6169D8"></path>
                <path
                    d="M1330.11 637.909C1330.11 637.909 1325.75 613.152 1352.24 595.493C1352.24 595.493 1362.44 622.177 1330.11 637.909Z"
                    fill="#6169D8"></path>
                <path
                    d="M1348.08 650.874C1348.08 650.874 1343.72 626.116 1370.21 608.458C1370.21 608.458 1380.41 635.142 1348.08 650.874Z"
                    fill="#6169D8"></path>
                <path
                    d="M1369.61 662.311C1369.61 662.311 1365.25 637.554 1391.74 619.896C1391.74 619.896 1401.94 646.58 1369.61 662.311Z"
                    fill="#6169D8"></path>
                <path
                    d="M1391.33 670.608C1391.33 670.608 1386.96 645.851 1413.46 628.193C1413.46 628.193 1423.65 654.877 1391.33 670.608Z"
                    fill="#6169D8"></path>
                <path d="M1271.19 560.693C1271.19 560.693 1315.89 674.685 1441.44 679.241" stroke="#6169D8"
                    stroke-width="0.6635" stroke-miterlimit="10" stroke-linecap="round"></path>
            </g>
            <mask id="mask8_5_93" style="mask-type:luminance" maskUnits="userSpaceOnUse" x="30" y="433" width="1440"
                height="500">
                <path d="M1470 433H30V933H1470V433Z" fill="white"></path>
            </mask>
            <g mask="url(#mask8_5_93)">
                <path
                    d="M1330 484.572C1338.21 494.303 1348.22 502.397 1359.1 509.133L1376.86 507.417L1368.73 514.637C1379.97 520.581 1391.81 525.254 1403.33 528.923L1421.34 517.085L1413.51 531.94C1445.92 540.859 1473.51 542.142 1474.61 542.142L1473.56 477.63L1371.62 454.768C1376.02 463.376 1382.26 470.764 1389.09 476.98C1395.95 475.381 1405.75 473.057 1406.11 472.958C1406.44 472.871 1399.46 477.407 1393.81 481.046C1411.74 495.598 1431.48 502.508 1431.48 502.508L1330 484.572Z"
                    fill="#6169D8"></path>
                <path d="M1431.48 502.508L1476.6 511.577" stroke="#FCF4E9" stroke-width="0.6759" stroke-miterlimit="10"
                    stroke-linecap="round"></path>
                <path d="M1438.77 537.822L1485 531.867" stroke="#FCF4E9" stroke-width="0.6759" stroke-miterlimit="10"
                    stroke-linecap="round"></path>
                <mask id="mask9_5_93" style="mask-type:luminance" maskUnits="userSpaceOnUse" x="1330" y="454"
                    width="145" height="89">
                    <path
                        d="M1330 484.452C1338.21 494.183 1348.22 502.277 1359.1 509.014L1376.86 507.297L1368.73 514.518C1379.97 520.461 1391.81 525.134 1403.33 528.803L1421.34 516.965L1413.51 531.821C1445.92 540.739 1473.51 542.022 1474.61 542.022L1473.56 477.51L1371.62 454.648C1376.02 463.257 1382.26 470.644 1389.09 476.861C1395.95 475.262 1405.75 472.937 1406.11 472.838C1406.44 472.752 1399.46 477.288 1393.81 480.926C1411.74 495.478 1431.48 502.388 1431.48 502.388L1330 484.452Z"
                        fill="white"></path>
                </mask>
                <g mask="url(#mask9_5_93)">
                    <path d="M1411.85 494.272L1374.82 531.863" stroke="#FCF4E9" stroke-width="0.6759"
                        stroke-miterlimit="10" stroke-linecap="round"></path>
                </g>
                <mask id="mask10_5_93" style="mask-type:luminance" maskUnits="userSpaceOnUse" x="1330" y="454"
                    width="145" height="89">
                    <path
                        d="M1330 484.452C1338.21 494.183 1348.22 502.277 1359.1 509.014L1376.86 507.297L1368.73 514.518C1379.97 520.461 1391.81 525.134 1403.33 528.803L1421.34 516.965L1413.51 531.821C1445.92 540.739 1473.51 542.022 1474.61 542.022L1473.56 477.51L1371.62 454.648C1376.02 463.257 1382.26 470.644 1389.09 476.861C1395.95 475.262 1405.75 472.937 1406.11 472.838C1406.44 472.752 1399.46 477.288 1393.81 480.926C1411.74 495.478 1431.48 502.388 1431.48 502.388L1330 484.452Z"
                        fill="white"></path>
                </mask>
                <g mask="url(#mask10_5_93)">
                    <path d="M1384.38 489.723L1335.1 504.089" stroke="#FCF4E9" stroke-width="0.6759"
                        stroke-miterlimit="10" stroke-linecap="round"></path>
                </g>
                <mask id="mask11_5_93" style="mask-type:luminance" maskUnits="userSpaceOnUse" x="1330" y="454"
                    width="145" height="89">
                    <path
                        d="M1330 484.452C1338.21 494.183 1348.22 502.277 1359.1 509.014L1376.86 507.297L1368.73 514.518C1379.97 520.461 1391.81 525.134 1403.33 528.803L1421.34 516.965L1413.51 531.821C1445.92 540.739 1473.51 542.022 1474.61 542.022L1473.56 477.51L1371.62 454.648C1376.02 463.257 1382.26 470.644 1389.09 476.861C1395.95 475.262 1405.75 472.937 1406.11 472.838C1406.44 472.752 1399.46 477.288 1393.81 480.926C1411.74 495.478 1431.48 502.388 1431.48 502.388L1330 484.452Z"
                        fill="white"></path>
                </mask>
                <g mask="url(#mask11_5_93)">
                    <path d="M1458.14 465.54L1422.3 499.3" stroke="#FCF4E9" stroke-width="0.6759" stroke-miterlimit="10"
                        stroke-linecap="round"></path>
                </g>
                <mask id="mask12_5_93" style="mask-type:luminance" maskUnits="userSpaceOnUse" x="1330" y="454"
                    width="145" height="89">
                    <path
                        d="M1330 484.452C1338.21 494.183 1348.22 502.277 1359.1 509.014L1376.86 507.297L1368.73 514.518C1379.97 520.461 1391.81 525.134 1403.33 528.803L1421.34 516.965L1413.51 531.821C1445.92 540.739 1473.51 542.022 1474.61 542.022L1473.56 477.51L1371.62 454.648C1376.02 463.257 1382.26 470.644 1389.09 476.861C1395.95 475.262 1405.75 472.937 1406.11 472.838C1406.44 472.752 1399.46 477.288 1393.81 480.926C1411.74 495.478 1431.48 502.388 1431.48 502.388L1330 484.452Z"
                        fill="white"></path>
                </mask>
                <g mask="url(#mask12_5_93)">
                    <path d="M1436.04 462.667L1396.62 489.005" stroke="#FCF4E9" stroke-width="0.6759"
                        stroke-miterlimit="10" stroke-linecap="round"></path>
                </g>
            </g>
        </svg>