<svg width="44" height="44" viewBox="0 0 44 44" fill="none" xmlns="http://www.w3.org/2000/svg">
<g id="right-77 2">
<path id="Vector" d="M21.9141 4.81251C31.3629 4.81251 39.05 12.4996 39.05 21.9527C39.05 31.4016 31.3629 39.0887 21.9141 39.0887C12.4653 39.0887 4.77817 31.4016 4.77817 21.9527C4.77817 12.4996 12.4653 4.81251 21.9141 4.81251ZM21.9141 34.9551C29.0856 34.9551 34.9208 29.1199 34.9208 21.9484C34.9208 14.777 29.0856 8.94181 21.9141 8.94181C14.7426 8.94181 8.90747 14.777 8.90747 21.9484C8.90747 29.1199 14.7426 34.9551 21.9141 34.9551Z" fill="#F5F5F5" fill-opacity="0.79"/>
<path id="Vector_2" d="M26.7051 14.8973C26.7051 15.5418 26.4602 16.1906 25.966 16.6805L20.698 21.9484L25.966 27.2164C26.95 28.2004 26.95 29.8031 25.966 30.7871C24.982 31.7711 23.3793 31.7711 22.3953 30.7871L15.3441 23.7359C14.3602 22.7519 14.3602 21.1492 15.3441 20.1652L22.3953 13.1141C23.3793 12.1301 24.982 12.1301 25.966 13.1141C26.4602 13.6039 26.7051 14.2527 26.7051 14.8973Z" fill="#F5F5F5" fill-opacity="0.79"/>
</g>
</svg>
