<svg width="44" height="44" viewBox="0 0 44 44" fill="none" xmlns="http://www.w3.org/2000/svg">
<g id="right-77 1">
<path id="Vector" d="M22.0859 39.1875C12.6371 39.1875 4.94995 31.5004 4.94995 22.0473C4.94995 12.5984 12.6371 4.91132 22.0859 4.91132C31.5347 4.91132 39.2218 12.5984 39.2218 22.0473C39.2218 31.5004 31.5347 39.1875 22.0859 39.1875ZM22.0859 9.04491C14.9144 9.04491 9.07925 14.8801 9.07925 22.0516C9.07925 29.223 14.9144 35.0582 22.0859 35.0582C29.2574 35.0582 35.0925 29.223 35.0925 22.0516C35.0925 14.8801 29.2574 9.04491 22.0859 9.04491Z" fill="#F5F5F5" fill-opacity="0.79"/>
<path id="Vector_2" d="M17.2949 29.1027C17.2949 28.4582 17.5398 27.8094 18.034 27.3195L23.302 22.0516L18.034 16.7836C17.05 15.7996 17.05 14.1969 18.034 13.2129C19.018 12.2289 20.6207 12.2289 21.6047 13.2129L28.6559 20.2641C29.6398 21.2481 29.6398 22.8508 28.6559 23.8348L21.6047 30.8859C20.6207 31.8699 19.018 31.8699 18.034 30.8859C17.5398 30.3961 17.2949 29.7473 17.2949 29.1027Z" fill="#F5F5F5" fill-opacity="0.79"/>
</g>
</svg>
